<?xml version="1.0" encoding="utf-8"?>
<svg xmlns="http://www.w3.org/2000/svg" viewBox="90 80 660 620" role="img" aria-label="Popcorn kernel">
<g>
		<path style="fill:#F6EFD0;" d="M595.157,414.565c19.351-14.528,31.925-37.593,31.925-63.653c0-28.351-14.859-53.176-37.17-67.287
			c17.33-24.99,23.86-58.036,12.666-92.428c-9.48-29.127-32.363-52.475-61.387-62.266c-62.207-20.986-120.497,16.035-134.613,70.8
			c-11.643-13.318-28.714-21.772-47.793-21.772c-14.126,0-27.128,4.667-37.677,12.465c-4.817-35.619-36.651-62.662-74.236-59.636
			c-33.965,2.735-61.357,30.818-63.354,64.834c-1.044,17.78,4.685,34.166,14.773,46.949c-24.993,5.056-43.81,27.14-43.81,53.624
			c0,11.536,3.589,22.223,9.684,31.046c-9.578,18.357-14.898,38.345-14.898,59.288c0,0.153,0.015,0.304,0.015,0.457
			c-2.503-0.281-5.038-0.457-7.616-0.457c-38.339,0-69.216,31.949-67.46,70.675c1.557,34.332,29.744,62.617,64.07,64.304
			c20.751,1.02,39.515-7.384,52.546-21.241c4.568,30.059,30.447,53.117,61.782,53.117c13.349,0,25.696-4.214,35.855-11.337
			c9.746,58.204,60.328,102.57,121.3,102.57c63.982,0,116.539-48.847,122.454-111.281c13.573,10.536,31.169,16.136,50.154,13.856
			c30.644-3.681,55.477-28.285,59.327-58.907C645.977,454.216,625.11,424.333,595.157,414.565z"/>
		<path style="fill:#F3D191;" d="M595.157,414.565c19.351-14.528,31.925-37.593,31.925-63.653c0-28.351-14.859-53.176-37.17-67.286
			c17.33-24.99,23.86-58.036,12.666-92.428c-9.48-29.127-32.364-52.475-61.387-62.267c-37.196-12.548-72.982-4.346-98.771,15.977
			c17.757-6.94,38.441-8.037,59.692-0.868c23.831,8.039,42.619,27.21,50.403,51.125c9.191,28.238,3.83,55.371-10.4,75.89
			c18.319,11.586,30.52,31.969,30.52,55.247c0,21.397-10.324,40.335-26.213,52.264c24.594,8.021,41.727,32.556,38.209,60.53
			c-3.161,25.143-23.551,45.345-48.711,48.367c-15.587,1.872-30.035-2.726-41.179-11.376c-4.856,51.262-48.01,91.369-100.543,91.369
			c-50.062,0-91.594-36.427-99.596-84.217c-8.341,5.848-18.479,9.309-29.439,9.309c-25.729,0-46.976-18.933-50.727-43.613
			c-10.699,11.378-26.105,18.278-43.144,17.44c-28.183-1.385-51.328-24.609-52.606-52.798c-0.395-8.701,1.275-16.955,4.47-24.399
			c-29.237,8.329-50.411,35.796-48.949,68.028c1.557,34.332,29.744,62.617,64.07,64.304c20.751,1.02,39.515-7.384,52.546-21.241
			c4.568,30.059,30.447,53.118,61.782,53.118c13.349,0,25.696-4.214,35.855-11.337c9.746,58.204,60.328,102.57,121.3,102.57
			c63.982,0,116.539-48.847,122.454-111.281c13.573,10.536,31.17,16.136,50.154,13.856c30.644-3.681,55.477-28.285,59.328-58.908
			C645.976,454.216,625.11,424.333,595.157,414.565z"/>
		<path style="fill:#F9931F;" d="M444.252,360.128c-2.099-22.828-19.466-41.969-41.931-46.532
			c-9.733-1.977-18.999-1.056-27.37,1.803c0.062-0.949,0.145-1.892,0.145-2.857c0-26.292-23.335-47.134-50.424-42.945
			c-16.05,2.482-29.559,14.264-34.467,29.746c-2.854,9.002-2.576,17.619-0.312,25.386c-6.754,4.652-12.638,10.472-17.361,17.168
			c-9.119,12.928-1.689,31.352,13.917,33.952c9.309,1.551,19.033,5.776,27.782,12.639c21.668,16.999,29.104,43.69,16.61,59.617
			c-0.767,0.977-1.594,1.887-2.469,2.738c0.233,0.002,0.459,0.035,0.693,0.035c11.884,0,23.064-3.003,32.834-8.283
			c9.367,13.616,26.17,21.72,44.562,18.393c17.349-3.139,31.39-16.917,34.921-34.19c2.458-12.023-0.077-23.342-5.786-32.47
			C442.054,384.703,445.421,372.832,444.252,360.128z"/>
		<path style="fill:#A44F03;" d="M420.892,365.365c-4.065-10.203-15.632-15.18-25.835-11.115c-2.488,0.991-4.651,2.44-6.462,4.194
			c-6.823-9.319-19.248-13.303-30.475-8.831c-13.318,5.306-19.814,20.403-14.508,33.721c3.826,9.604,12.757,15.574,22.428,16.216
			c-3.184,7.711-3.504,16.612-0.173,24.974c6.793,17.053,26.125,25.37,43.178,18.577c17.053-6.793,25.37-26.125,18.577-43.178
			c-2.274-5.708-5.972-10.408-10.501-13.919C422.031,380.556,423.789,372.638,420.892,365.365z"/>
		<path style="fill:#FFFEF6;" d="M257.618,142.996c-11.084-5.126-42.923,3.139-51.772,22.888
			c-8.848,19.748,17.697,45.029,50.563,36.181C289.274,193.217,291.748,158.781,257.618,142.996z"/>
		<path style="fill:#FFFEF6;" d="M204.126,258.948c-14.358-7.448-32.409,17.697-33.673,27.809
			c-1.264,10.112-0.457,39.186,16.837,35.394S216.309,265.268,204.126,258.948z"/>
		<path style="fill:#FFFEF6;" d="M462.451,156.559c-25.051-2.609-47.223,43.111-32.46,65.798
			c14.763,22.687,43.837,39.12,69.118,17.631C524.39,218.498,523.126,162.879,462.451,156.559z"/>
		<path style="fill:#FFFEF6;" d="M391.506,209c2.277-12.203-33.399-28.84-52.36-14.226C320.186,209.389,385.732,239.944,391.506,209
			z"/>
		<path style="fill:#FFFEF6;" d="M243.141,418.22c9.036-28.715,48.662-8.664,60.038,4.516c11.377,13.181,5.056,39.726-15.169,44.782
			C267.785,472.574,232.401,452.349,243.141,418.22z"/>
	</g>
</svg>
