<?xml version="1.0" encoding="utf-8"?>
<svg xmlns="http://www.w3.org/2000/svg" viewBox="800 1360 650 540" role="img" aria-label="Popcorn kernel">
<g>
		<path style="fill:#F6EFD0;" d="M1377.718,1574.056c0-45.029-36.503-81.532-81.533-81.532c-32.055,0-59.71,18.545-73.032,45.451
			c-2.467-35.316-31.824-63.218-67.767-63.218c-14.075,0-27.15,4.277-38,11.6c3.536-6.956,5.571-14.804,5.571-23.141
			c0-28.274-22.92-51.195-51.195-51.195c-28.045,0-50.793,22.559-51.16,50.517c-10.618-12.32-26.302-20.15-43.842-20.15
			c-23.83,0-44.281,14.406-53.162,34.976c-13.713-21.039-37.409-34.976-64.395-34.976c-42.449,0-76.859,34.411-76.859,76.859
			s34.411,76.859,76.859,76.859c1.556,0,3.076-0.142,4.61-0.233c-17.476,9.825-29.302,28.516-29.302,49.993
			c0,31.67,25.674,57.344,57.345,57.344c4.2,0,8.281-0.48,12.225-1.337c-7.348,9.583-11.763,21.535-11.763,34.544
			c0,31.416,25.467,56.883,56.883,56.883c15.482,0,29.5-6.204,39.756-16.237c7.35,14.405,22.293,24.29,39.575,24.29
			c14.172,0,26.765-6.656,34.903-16.988c10.945,29.864,39.538,51.216,73.196,51.216c40.819,0,74.266-31.361,77.683-71.296
			c12.106,10.582,27.906,17.042,45.249,17.042c38.028,0,68.856-30.828,68.856-68.856c0-23.701-11.98-44.598-30.209-56.985
			C1342.294,1654.401,1377.718,1618.401,1377.718,1574.056z"/>
		<path style="fill:#F3D191;" d="M1377.718,1574.056c0-44.317-35.379-80.297-79.424-81.426
			c25.753,11.798,43.678,37.734,43.678,67.913c0,40.647-32.47,73.644-72.878,74.639c16.709,11.354,27.69,30.509,27.69,52.233
			c0,34.857-28.256,63.114-63.114,63.114c-15.896,0-30.379-5.921-41.476-15.621c-3.132,36.605-33.789,65.351-71.205,65.351
			c-30.851,0-57.061-19.571-67.092-46.945c-7.46,9.469-19.002,15.571-31.992,15.571c-15.84,0-29.538-9.06-36.274-22.264
			c-9.401,9.196-22.25,14.883-36.441,14.883c-27.454,0-49.902-21.233-51.938-48.167c-3.158,7.05-4.934,14.851-4.934,23.08
			c0,31.416,25.467,56.883,56.883,56.883c15.482,0,29.5-6.204,39.756-16.237c7.35,14.405,22.293,24.29,39.575,24.29
			c14.172,0,26.765-6.656,34.903-16.988c10.945,29.864,39.538,51.216,73.196,51.216c40.819,0,74.266-31.361,77.683-71.296
			c12.106,10.582,27.906,17.041,45.249,17.041c38.028,0,68.856-30.828,68.856-68.856c0-23.701-11.98-44.598-30.209-56.985
			C1342.294,1654.401,1377.718,1618.401,1377.718,1574.056z"/>
		<path style="fill:#F9931F;" d="M1136.329,1573.857c-5.422,0-10.588,1.051-15.359,2.896c-7.951-14.361-21.429-23.807-36.719-23.807
			c-11.279,0-21.54,5.184-29.357,13.646c-4.986-20.06-23.064-34.946-44.667-34.946c-25.448,0-46.077,20.63-46.077,46.078
			c0,19.534,12.176,36.19,29.336,42.894c-1.472,4.132-2.314,8.562-2.314,13.199c0,21.75,17.632,39.381,39.381,39.381
			c14.066,0,26.376-7.399,33.342-18.494c6.097,3.859,13.01,6.074,20.356,6.074c9.782,0,18.792-3.913,26.118-10.458
			c7.196,5.535,16.18,8.862,25.96,8.862c23.562,0,42.662-19.101,42.662-42.662
			C1178.991,1592.957,1159.891,1573.857,1136.329,1573.857z"/>
		<path style="fill:#A44F03;" d="M1069.591,1599.704c-2.874,0-5.559,0.72-7.981,1.901c-1.6-1.282-3.343-2.378-5.276-3.155
			c0.369-1.7,0.586-3.456,0.586-5.266c0-13.716-11.119-24.836-24.834-24.836c-13.716,0-24.836,11.12-24.836,24.836
			c0,12.113,8.681,22.171,20.155,24.364c-0.003,0.161-0.048,0.31-0.048,0.472c0,11.662,9.454,21.117,21.117,21.117
			c4.994,0,9.521-1.806,13.136-4.704c2.422,1.181,5.106,1.902,7.981,1.902c10.115,0,18.315-8.199,18.315-18.315
			C1087.906,1607.905,1079.706,1599.704,1069.591,1599.704z"/>
		<path style="fill:#FFFEF6;" d="M1273.845,1507.28c8.766-9.112,47.243,8.366,52.063,38.171c4.82,29.805-19.197,75.77-44.478,64.796
			C1256.148,1599.273,1234.659,1548.014,1273.845,1507.28z"/>
		<path style="fill:#FFFEF6;" d="M892.318,1476.659c-3.517-9.683-43.198-34.207-69.743-8.887s-27.809,96.198,21.489,100.577
			C893.362,1572.728,900.122,1498.148,892.318,1476.659z"/>
		<path style="fill:#FFFEF6;" d="M864.289,1617.769c-27.77,4.595-5.056,72.516,20.225,64.932S888.75,1613.721,864.289,1617.769z"/>
		<path style="fill:#FFFEF6;" d="M1047.578,1462.754c-10.79-13.386,0.153-35.954,23.992-40.45s46.795,23.939,35.418,45.467
			S1067.749,1487.776,1047.578,1462.754z"/>
		<path style="fill:#FFFEF6;" d="M1222.018,1675.372c-19.776,15.421-3.792,58.579,17.697,57.603
			c21.489-0.976,49.298-34.595,39.186-57.603C1268.789,1652.364,1234.659,1665.515,1222.018,1675.372z"/>
		<path style="fill:#FFFEF6;" d="M1096.876,1723.863c-20.314,19.599-3.955,51.115,20.776,57.435s57.596-13.905,53.804-41.714
			C1167.664,1711.775,1117.101,1704.35,1096.876,1723.863z"/>
		<path style="fill:#FFFEF6;" d="M956.565,1456.657c-20.733,13.416-11.376,33.182,7.584,43.025s40.45-4.833,37.922-21.512
			C999.543,1461.49,967.942,1449.295,956.565,1456.657z"/>
		<path style="fill:#FFFEF6;" d="M935.747,1697.79c-23.781,3.931-17.103,22.292-8.255,35.836
			c8.848,13.543,40.282,15.495,46.054-0.65C979.318,1716.831,959.17,1693.917,935.747,1697.79z"/>
		<path style="fill:#FFFEF6;" d="M1144.238,1487.664c-20.876,7.991-1.9,41.368,14.582,47.757
			c16.482,6.388,47.587,8.299,49.839-8.526C1210.91,1510.069,1176.735,1475.224,1144.238,1487.664z"/>
	</g>
</svg>
