<svg width="1254" height="1254" viewBox="0 0 1254 1254" fill="none" xmlns="http://www.w3.org/2000/svg">
<path d="M225.2 965H204.032V930.296H225.2V934.616H208.736V945.464H223.568V949.64H208.736V960.632H225.2V965Z" fill="white"/>
<path d="M253.185 965L239.985 930.296H245.025L253.473 952.472C254.241 954.44 254.913 956.408 255.633 959C256.449 956.264 257.265 953.96 257.841 952.424L266.241 930.296H271.137L258.081 965H253.185Z" fill="white"/>
<path d="M308.334 965H287.166V930.296H308.334V934.616H291.87V945.464H306.702V949.64H291.87V960.632H308.334V965Z" fill="white"/>
<path d="M331.374 965H326.67V930.296H339.774C347.214 930.296 351.63 934.232 351.63 940.712C351.63 945.512 349.23 948.968 344.91 950.36L351.966 965H346.734L340.254 951.272H331.374V965ZM331.374 934.52V947.096H339.822C344.19 947.096 346.686 944.744 346.686 940.76C346.686 936.728 344.094 934.52 339.774 934.52H331.374Z" fill="white"/>
<path d="M377.148 950.888L365.388 930.296H370.668L378.396 944.168C378.876 944.984 379.164 945.656 379.548 946.472C379.98 945.608 380.076 945.32 380.7 944.168L388.38 930.296H393.516L381.852 950.888V965H377.148V950.888Z" fill="white"/>
<path d="M452.551 950.264H438.919V965H434.215V930.296H455.143V934.616H438.919V945.992H452.551V950.264Z" fill="white"/>
<path d="M477.064 930.296V965H472.36V930.296H477.064Z" fill="white"/>
<path d="M501.381 930.296V960.632H516.645V965H496.677V930.296H501.381Z" fill="white"/>
<path d="M537.883 965H533.275V930.296H537.883L549.835 959.48L561.787 930.296H566.491V965H561.883V951.272C561.883 944.792 561.931 942.44 562.171 939.992L552.043 965H547.627L537.547 940.088C537.787 941.768 537.883 945.32 537.883 950.168V965Z" fill="white"/>
<path d="M588.684 965.576C586.812 965.576 585.228 964.04 585.228 962.216C585.228 960.344 586.812 958.808 588.684 958.808C590.508 958.808 592.092 960.344 592.092 962.216C592.092 964.04 590.508 965.576 588.684 965.576Z" fill="white"/>
<path d="M656.69 965H635.522V930.296H656.69V934.616H640.226V945.464H655.058V949.64H640.226V960.632H656.69V965Z" fill="white"/>
<path d="M684.675 965L671.475 930.296H676.515L684.963 952.472C685.731 954.44 686.403 956.408 687.123 959C687.939 956.264 688.755 953.96 689.331 952.424L697.731 930.296H702.627L689.571 965H684.675Z" fill="white"/>
<path d="M739.824 965H718.656V930.296H739.824V934.616H723.36V945.464H738.192V949.64H723.36V960.632H739.824V965Z" fill="white"/>
<path d="M762.864 965H758.16V930.296H771.264C778.704 930.296 783.12 934.232 783.12 940.712C783.12 945.512 780.72 948.968 776.4 950.36L783.456 965H778.224L771.744 951.272H762.864V965ZM762.864 934.52V947.096H771.312C775.68 947.096 778.176 944.744 778.176 940.76C778.176 936.728 775.584 934.52 771.264 934.52H762.864Z" fill="white"/>
<path d="M808.638 950.888L796.878 930.296H802.158L809.886 944.168C810.366 944.984 810.654 945.656 811.038 946.472C811.47 945.608 811.566 945.32 812.19 944.168L819.87 930.296H825.006L813.342 950.888V965H808.638V950.888Z" fill="white"/>
<path d="M880.105 965.528C870.217 965.528 863.641 958.424 863.641 947.672C863.641 936.968 870.409 929.72 880.345 929.72C888.169 929.72 894.169 934.376 895.465 941.48H890.425C889.129 936.968 885.241 934.232 880.201 934.232C873.193 934.232 868.585 939.512 868.585 947.624C868.585 955.736 873.193 961.016 880.201 961.016C885.289 961.016 889.321 958.28 890.617 954.008H895.609C894.121 960.92 887.929 965.528 880.105 965.528Z" fill="white"/>
<path d="M917.601 965H912.897V930.296H926.001C933.441 930.296 937.857 934.232 937.857 940.712C937.857 945.512 935.457 948.968 931.137 950.36L938.193 965H932.961L926.481 951.272H917.601V965ZM917.601 934.52V947.096H926.049C930.417 947.096 932.913 944.744 932.913 940.76C932.913 936.728 930.321 934.52 926.001 934.52H917.601Z" fill="white"/>
<path d="M976.991 965H955.823V930.296H976.991V934.616H960.527V945.464H975.359V949.64H960.527V960.632H976.991V965Z" fill="white"/>
<path d="M1006.8 965H995.327V930.296H1006.61C1016.98 930.296 1023.98 937.304 1023.98 947.672C1023.98 957.992 1017.07 965 1006.8 965ZM1006.27 934.616H1000.03V960.632H1006.46C1014.19 960.632 1019.09 955.64 1019.09 947.672C1019.09 939.608 1014.19 934.616 1006.27 934.616Z" fill="white"/>
<path d="M1046.19 930.296V965H1041.49V930.296H1046.19Z" fill="white"/>
<path d="M1062.44 934.616V930.296H1088.03V934.616H1077.61V965H1072.91V934.616H1062.44Z" fill="white"/>
<path d="M723.008 397.339C725.185 397.593 725.185 397.593 727.406 397.852C730.465 398.211 733.524 398.575 736.582 398.942C741.197 399.492 745.815 400.018 750.433 400.544C782.561 404.304 800.692 408.956 821.567 434.103C825.29 438.547 829.117 442.899 832.932 447.265C839.092 454.342 845.08 461.533 850.984 468.826C854.88 473.523 858.991 478.01 863.102 482.52C867.329 487.276 871.291 492.232 875.284 497.185C878.644 501.213 882.164 505.042 885.741 508.876C894.016 517.987 898.679 524.196 898.137 536.964C896.816 546.402 892.025 552.149 885.266 558.508C881.074 562.667 877.509 567.303 873.81 571.898C869.787 576.856 865.587 581.658 861.387 586.467C856.185 592.428 851.061 598.426 846.091 604.583C840.929 610.963 835.46 616.999 829.904 623.036C825.511 627.928 821.401 633.023 817.273 638.139C813.236 643.03 808.993 647.713 804.706 652.383C802.757 654.567 800.892 656.827 799.098 659.139C793.319 666.128 784.767 669.405 775.935 670.553C768.034 670.804 760.975 670.052 753.253 668.448C751.591 668.117 751.591 668.117 749.896 667.78C746.297 667.061 742.701 666.329 739.105 665.596C734.071 664.585 729.036 663.581 724.001 662.579C722.106 662.2 722.106 662.2 720.172 661.814C711.964 660.185 703.745 658.652 695.503 657.206C694.464 657.023 693.425 656.84 692.354 656.651C688.412 655.958 684.47 655.268 680.524 654.603C677.854 654.153 675.188 653.688 672.521 653.222C671.031 652.969 669.54 652.717 668.005 652.456C663.419 651.311 659.704 649.675 655.618 647.31C653.468 643.011 653.779 639.752 654.25 635.004C656.441 631.941 658.338 629.705 661.001 627.143C662.402 625.709 663.799 624.273 665.194 622.833C665.892 622.121 666.59 621.409 667.309 620.676C670.144 617.702 672.706 614.54 675.272 611.334C680.234 605.169 685.363 599.178 690.568 593.218C697.352 585.426 704.037 577.594 710.307 569.377C711.116 568.321 711.925 567.265 712.759 566.178C721.932 553.683 729.654 539.334 733.55 524.258C733.801 523.306 734.051 522.354 734.309 521.374C735.226 515.418 735.225 509.51 735.259 503.493C735.288 502.269 735.316 501.045 735.345 499.784C735.42 486.852 731.911 476.017 725.689 464.783C725.266 463.981 724.843 463.179 724.407 462.353C719.574 453.436 713.538 445.338 707.617 437.124C704.877 433.312 702.165 429.48 699.455 425.645C698.52 424.364 697.585 423.083 696.621 421.763C691.253 414.093 688.344 409.269 689.799 399.839C695.821 391.46 713.996 396.27 723.008 397.339Z" fill="white"/>
<path d="M469.672 398.472C477.302 402.847 479.227 409.374 482.127 417.223C482.634 418.543 483.141 419.864 483.664 421.224C485.286 425.454 486.88 429.693 488.471 433.935C490.563 439.448 492.666 444.957 494.774 450.464C495.552 452.503 495.552 452.503 496.347 454.583C499.979 464.034 503.783 473.399 507.757 482.712C508.254 483.883 508.751 485.053 509.263 486.26C519.692 510.404 536.692 529.618 561.104 540.432C588.587 551.314 617.372 552.142 646.553 552.334C648.07 552.354 648.07 552.354 649.619 552.375C652.392 552.412 655.165 552.429 657.938 552.444C662.685 552.997 664.639 553.658 667.922 557.072C668.728 560.858 668.728 560.858 667.922 565.275C665.541 568.639 663.274 571.438 660.487 574.419C658.96 576.123 657.435 577.829 655.91 579.535C654.779 580.785 654.779 580.785 653.624 582.06C650.826 585.187 648.172 588.418 645.533 591.68C639.303 599.351 633.019 606.977 626.729 614.599C625.946 615.549 625.164 616.498 624.357 617.476C623.227 618.834 623.227 618.834 622.073 620.22C620.443 622.236 618.926 624.342 617.446 626.47C611.018 633.392 601.657 635.904 592.692 637.99C591.176 638.36 591.176 638.36 589.63 638.738C587.491 639.259 585.351 639.775 583.209 640.285C577.637 641.612 572.075 642.983 566.511 644.346C565.434 644.608 564.356 644.871 563.246 645.141C555.889 646.938 548.565 648.823 541.281 650.899C540.393 651.151 539.506 651.404 538.591 651.665C536.743 652.191 534.894 652.717 533.046 653.244C525.98 655.226 518.888 657.113 511.8 659.017C510.276 659.427 508.752 659.837 507.183 660.26C500.626 662.023 494.068 663.779 487.499 665.495C486.048 665.876 486.048 665.876 484.568 666.264C482.094 666.911 479.619 667.552 477.144 668.192C473.878 668.863 473.878 668.863 472.406 670.553C465.312 671.29 459.239 671.454 452.752 668.331C444.714 661.058 441.06 654.806 437.809 644.618C436.987 642.161 436.163 639.704 435.337 637.248C434.915 635.977 434.493 634.706 434.058 633.397C431.926 627.075 429.643 620.808 427.362 614.539C426.425 611.951 425.487 609.362 424.55 606.774C423.583 604.107 422.615 601.44 421.647 598.773C420.12 594.559 418.594 590.345 417.067 586.131C416.043 583.304 415.019 580.477 413.994 577.651C410.686 568.521 407.388 559.388 404.098 550.252C403.681 549.096 403.265 547.94 402.836 546.75C399.646 537.896 399.646 537.896 398.111 533.625C397.056 530.693 396 527.761 394.944 524.83C394.354 523.191 393.764 521.552 393.157 519.864C391.864 516.183 391.864 516.183 390.372 513.32C388.901 495.329 391.527 484.558 403.104 470.337C404.172 469.081 405.24 467.824 406.341 466.529C409.364 462.911 412.15 459.214 414.897 455.383C419.236 449.337 423.698 443.406 428.259 437.525C432.117 432.545 435.928 427.533 439.715 422.5C440.695 421.202 441.675 419.903 442.685 418.566C444.646 415.966 446.603 413.362 448.554 410.754C449.458 409.558 450.363 408.362 451.294 407.129C452.102 406.054 452.91 404.978 453.743 403.87C458.582 398.157 462.468 397.727 469.672 398.472Z" fill="white"/>
<path d="M573.325 219.021C574.942 219.014 576.558 219.007 578.223 219C583.422 219.383 587.718 220.657 592.723 222.098C596.205 222.844 599.678 223.554 603.175 224.218C604.157 224.408 605.139 224.598 606.151 224.794C609.337 225.409 612.523 226.018 615.71 226.627C617.939 227.056 620.168 227.486 622.397 227.916C628.912 229.172 635.428 230.421 641.944 231.668C645.179 232.288 648.413 232.907 651.648 233.527C653.813 233.941 653.813 233.941 656.021 234.364C661.651 235.444 667.279 236.534 672.908 237.623C677.122 238.433 681.338 239.23 685.555 240.025C689.281 240.73 693.005 241.448 696.728 242.168C699.368 242.675 702.011 243.167 704.655 243.659C718.369 246.332 729.366 248.835 738.375 260.1C741.671 265.044 743.583 270.139 745.427 275.762C745.858 277.007 746.289 278.253 746.734 279.536C748.294 284.079 749.809 288.636 751.323 293.194C751.996 295.198 752.669 297.201 753.343 299.203C757.295 310.945 761.224 322.695 765.099 334.462C766.774 339.544 768.485 344.61 770.229 349.668C772.123 355.64 772.569 359.444 771.832 365.658C768.962 369.523 767.301 370.949 762.533 371.853C740.581 371.658 718.7 368.201 697.033 364.881C687.506 363.437 678.244 362.432 668.605 362.496C667.38 362.503 666.155 362.51 664.893 362.517C636.747 363.009 612.577 374.315 592.061 393.441C582.378 403.755 573.982 415.486 568.086 428.364C566.815 431.135 565.395 433.708 563.84 436.327C560.504 442.221 558.012 448.292 555.546 454.582C554.955 456.059 554.365 457.536 553.757 459.058C553.207 460.462 552.657 461.867 552.09 463.314C550.339 466.834 550.339 466.834 546.237 469.568C541.505 469.59 541.505 469.59 536.666 468.201C533.878 464.505 533.878 464.505 531.71 459.656C530.626 457.319 530.626 457.319 529.52 454.935C526.888 448.719 524.519 442.402 522.113 436.096C518.977 427.957 515.687 419.881 512.398 411.802C511.723 410.133 511.048 408.464 510.352 406.745C509.709 405.164 509.066 403.583 508.403 401.954C507.823 400.528 507.244 399.101 506.647 397.632C505.51 394.494 505.51 394.494 503.852 393.003C502.495 379.025 504.709 367.425 509.4 354.269C511.892 347.209 514.244 340.102 516.615 333.001C517.222 331.185 517.831 329.371 518.44 327.556C522.24 316.244 525.829 304.924 528.885 293.387C531.031 285.348 533.64 277.507 536.346 269.641C539.22 261.194 541.611 252.653 543.743 243.99C546.492 233.401 551.601 226.485 560.908 220.602C565.142 218.911 568.777 219.002 573.325 219.021Z" fill="white"/>
<path d="M179.076 871.928C143.94 871.928 119.784 846.552 119.784 809.464C119.784 772.132 143.452 746.268 178.1 746.268C212.016 746.268 234.22 769.692 234.22 805.072V813.612L141.988 813.856C143.696 838.988 156.872 852.896 179.564 852.896C197.376 852.896 209.088 845.576 212.992 831.912H234.464C228.608 857.532 208.6 871.928 179.076 871.928ZM178.1 765.544C158.092 765.544 145.404 777.5 142.476 798.484H211.284C211.284 778.72 198.352 765.544 178.1 765.544Z" fill="white"/>
<path d="M282.774 869H259.838V749.684H280.578L283.018 767.984C290.582 754.32 305.71 746.268 322.546 746.268C354.022 746.268 368.418 765.544 368.418 796.044V869H345.482V801.168C345.482 777.012 334.258 767.252 316.69 767.252C295.218 767.252 282.774 782.624 282.774 805.804V869Z" fill="white"/>
<path d="M388.996 834.352H410.956C410.956 846.552 420.228 853.872 435.356 853.872C451.46 853.872 460.732 847.284 460.732 836.304C460.732 828.252 456.828 823.372 444.384 820.2L423.4 815.32C402.172 810.196 392.168 799.704 392.168 782.136C392.168 760.176 410.712 746.268 437.064 746.268C463.172 746.268 480.252 760.908 480.74 783.6H458.78C458.292 771.644 450.24 764.08 436.332 764.08C421.936 764.08 413.884 770.424 413.884 781.404C413.884 789.456 419.74 794.824 431.452 797.752L452.436 802.876C472.688 807.756 482.692 817.028 482.692 834.84C482.692 857.532 463.172 871.928 434.868 871.928C406.808 871.928 388.996 857.044 388.996 834.352Z" fill="white"/>
<path d="M559.611 871.928C524.475 871.928 500.319 846.552 500.319 809.464C500.319 772.132 523.987 746.268 558.635 746.268C592.551 746.268 614.755 769.692 614.755 805.072V813.612L522.523 813.856C524.231 838.988 537.407 852.896 560.099 852.896C577.911 852.896 589.623 845.576 593.527 831.912H614.999C609.143 857.532 589.135 871.928 559.611 871.928ZM558.635 765.544C538.627 765.544 525.939 777.5 523.011 798.484H591.819C591.819 778.72 578.887 765.544 558.635 765.544Z" fill="white"/>
<path d="M663.309 869H640.373V749.684H660.869L663.065 765.3C669.165 754.076 681.853 746.268 698.689 746.268C717.233 746.268 730.409 755.54 736.509 770.424C742.121 755.54 756.517 746.268 775.061 746.268C802.389 746.268 818.981 763.348 818.981 790.92V869H796.533V796.532C796.533 777.744 786.041 767.008 769.937 767.008C752.613 767.008 741.145 779.208 741.145 798.24V869H718.453V796.288C718.453 777.5 708.205 767.252 692.101 767.252C674.777 767.252 663.309 779.208 663.309 798.24V869Z" fill="white"/>
<path d="M871.516 869H850.776V689.416H873.712V770.18C881.52 754.564 897.624 746.268 917.144 746.268C951.304 746.268 971.8 773.108 971.8 809.952C971.8 846.064 950.328 871.928 915.68 871.928C896.892 871.928 881.032 863.632 873.224 847.284L871.516 869ZM873.956 808.976C873.956 833.864 888.108 851.188 911.532 851.188C934.956 851.188 948.864 833.62 948.864 808.976C948.864 784.576 934.956 767.008 911.532 767.008C888.108 767.008 873.956 784.576 873.956 808.976Z" fill="white"/>
<path d="M1020.5 869H997.568V689.416H1020.5V869Z" fill="white"/>
<path d="M1089.16 871.928C1063.54 871.928 1048.41 857.532 1048.41 835.816C1048.41 813.856 1064.76 800.192 1092.82 797.996L1130.4 795.068V791.652C1130.4 771.644 1118.44 764.568 1102.34 764.568C1083.06 764.568 1072.08 773.108 1072.08 787.504H1052.07C1052.07 762.616 1072.57 746.268 1103.31 746.268C1132.84 746.268 1152.84 761.884 1152.84 794.092V869H1133.32L1130.88 849.724C1124.78 863.388 1108.44 871.928 1089.16 871.928ZM1095.75 854.116C1117.46 854.116 1130.64 839.964 1130.64 817.516V811.172L1100.14 813.612C1079.89 815.564 1071.59 823.372 1071.59 835.084C1071.59 847.772 1080.86 854.116 1095.75 854.116Z" fill="white"/>
</svg>
