<svg width="700" height="700" viewBox="0 0 700 700" fill="none" xmlns="http://www.w3.org/2000/svg">
<path d="M429.008 302.339C431.185 302.593 431.185 302.593 433.406 302.852C436.465 303.211 439.524 303.575 442.582 303.942C447.197 304.492 451.815 305.018 456.433 305.544C488.561 309.304 506.692 313.956 527.567 339.103C531.29 343.547 535.117 347.899 538.932 352.265C545.092 359.342 551.08 366.533 556.984 373.826C560.88 378.523 564.991 383.01 569.102 387.52C573.329 392.276 577.291 397.232 581.284 402.185C584.644 406.213 588.164 410.042 591.741 413.876C600.016 422.987 604.679 429.196 604.137 441.964C602.816 451.402 598.025 457.149 591.266 463.508C587.074 467.667 583.509 472.303 579.81 476.898C575.787 481.856 571.587 486.658 567.387 491.467C562.185 497.428 557.061 503.426 552.091 509.583C546.929 515.963 541.46 521.999 535.904 528.036C531.511 532.928 527.401 538.023 523.273 543.139C519.236 548.03 514.993 552.713 510.706 557.383C508.757 559.567 506.892 561.827 505.098 564.139C499.319 571.128 490.767 574.405 481.935 575.553C474.034 575.804 466.975 575.052 459.253 573.448C457.591 573.117 457.591 573.117 455.896 572.78C452.297 572.061 448.701 571.329 445.105 570.596C440.071 569.585 435.036 568.581 430.001 567.579C428.106 567.2 428.106 567.2 426.172 566.814C417.964 565.185 409.745 563.652 401.503 562.206C400.464 562.023 399.425 561.84 398.354 561.651C394.412 560.958 390.47 560.268 386.524 559.603C383.854 559.153 381.188 558.688 378.521 558.222C377.031 557.969 375.54 557.717 374.005 557.456C369.419 556.311 365.704 554.675 361.618 552.31C359.468 548.011 359.779 544.752 360.25 540.004C362.441 536.941 364.338 534.705 367.001 532.143C368.402 530.709 369.799 529.273 371.194 527.833C371.892 527.121 372.59 526.409 373.309 525.676C376.144 522.702 378.706 519.54 381.272 516.334C386.234 510.169 391.363 504.178 396.568 498.218C403.352 490.426 410.037 482.594 416.307 474.377C417.116 473.321 417.925 472.265 418.759 471.178C427.932 458.683 435.654 444.334 439.55 429.258C439.801 428.306 440.051 427.354 440.309 426.374C441.226 420.418 441.225 414.51 441.259 408.493C441.288 407.269 441.316 406.045 441.345 404.784C441.42 391.852 437.911 381.017 431.689 369.783C431.266 368.981 430.843 368.179 430.407 367.353C425.574 358.436 419.538 350.338 413.617 342.124C410.877 338.312 408.165 334.48 405.455 330.645C404.52 329.364 403.585 328.083 402.621 326.763C397.253 319.093 394.344 314.269 395.799 304.839C401.821 296.46 419.996 301.27 429.008 302.339Z" fill="#FC4D04"/>
<path d="M175.672 303.472C183.302 307.847 185.227 314.374 188.127 322.223C188.634 323.543 189.141 324.864 189.664 326.224C191.286 330.454 192.88 334.693 194.471 338.935C196.563 344.448 198.666 349.957 200.774 355.464C201.552 357.503 201.552 357.503 202.347 359.583C205.979 369.034 209.783 378.399 213.757 387.712C214.254 388.883 214.751 390.053 215.263 391.26C225.692 415.404 242.692 434.618 267.104 445.432C294.587 456.314 323.372 457.142 352.553 457.334C354.07 457.354 354.07 457.354 355.619 457.375C358.392 457.412 361.165 457.429 363.938 457.444C368.685 457.997 370.639 458.658 373.922 462.072C374.728 465.858 374.728 465.858 373.922 470.275C371.541 473.639 369.274 476.438 366.487 479.419C364.96 481.123 363.435 482.829 361.91 484.535C360.779 485.785 360.779 485.785 359.624 487.06C356.826 490.187 354.172 493.418 351.533 496.68C345.303 504.351 339.019 511.977 332.729 519.599C331.946 520.549 331.164 521.498 330.357 522.476C329.227 523.834 329.227 523.834 328.073 525.22C326.443 527.236 324.926 529.342 323.446 531.47C317.018 538.392 307.657 540.904 298.692 542.99C297.176 543.36 297.176 543.36 295.63 543.738C293.491 544.259 291.351 544.775 289.209 545.285C283.637 546.612 278.075 547.983 272.511 549.346C271.434 549.608 270.356 549.871 269.246 550.141C261.889 551.938 254.565 553.823 247.281 555.899C246.393 556.151 245.506 556.404 244.591 556.665C242.743 557.191 240.894 557.717 239.046 558.244C231.98 560.226 224.888 562.113 217.8 564.017C216.276 564.427 214.752 564.837 213.183 565.26C206.626 567.023 200.068 568.779 193.499 570.495C192.048 570.876 192.048 570.876 190.568 571.264C188.094 571.911 185.619 572.552 183.144 573.192C179.878 573.863 179.878 573.863 178.406 575.553C171.312 576.29 165.239 576.454 158.752 573.331C150.714 566.058 147.06 559.806 143.809 549.618C142.987 547.161 142.163 544.704 141.337 542.248C140.915 540.977 140.493 539.706 140.058 538.397C137.926 532.075 135.643 525.808 133.362 519.539C132.425 516.951 131.487 514.362 130.55 511.774C129.583 509.107 128.615 506.44 127.647 503.773C126.12 499.559 124.594 495.345 123.067 491.131C122.043 488.304 121.019 485.477 119.994 482.651C116.686 473.521 113.388 464.388 110.098 455.252C109.681 454.096 109.265 452.94 108.836 451.75C105.646 442.896 105.646 442.896 104.111 438.625C103.056 435.693 102 432.761 100.944 429.83C100.354 428.191 99.7644 426.552 99.157 424.864C97.8642 421.183 97.8642 421.183 96.3718 418.32C94.9005 400.329 97.5273 389.558 109.104 375.337C110.172 374.081 111.24 372.824 112.341 371.529C115.364 367.911 118.15 364.214 120.897 360.383C125.236 354.337 129.698 348.406 134.259 342.525C138.117 337.545 141.928 332.533 145.715 327.5C146.695 326.202 147.675 324.903 148.685 323.566C150.646 320.966 152.603 318.362 154.554 315.754C155.458 314.558 156.363 313.362 157.294 312.129C158.102 311.054 158.91 309.978 159.743 308.87C164.582 303.157 168.468 302.727 175.672 303.472Z" fill="#FC4D04"/>
<path d="M279.325 124.021C280.942 124.014 282.558 124.007 284.223 124C289.422 124.383 293.718 125.657 298.723 127.098C302.205 127.844 305.678 128.554 309.175 129.218C310.157 129.408 311.139 129.598 312.151 129.794C315.337 130.409 318.523 131.018 321.71 131.627C323.939 132.056 326.168 132.486 328.397 132.916C334.912 134.172 341.428 135.421 347.944 136.668C351.179 137.288 354.413 137.907 357.648 138.527C359.813 138.941 359.813 138.941 362.021 139.364C367.651 140.444 373.279 141.534 378.908 142.623C383.122 143.433 387.338 144.23 391.555 145.025C395.281 145.73 399.005 146.448 402.728 147.168C405.368 147.675 408.011 148.167 410.655 148.659C424.369 151.332 435.366 153.835 444.375 165.1C447.671 170.044 449.583 175.139 451.427 180.762C451.858 182.007 452.289 183.253 452.734 184.536C454.294 189.079 455.809 193.636 457.323 198.194C457.996 200.198 458.669 202.201 459.343 204.203C463.295 215.945 467.224 227.695 471.099 239.462C472.774 244.544 474.485 249.61 476.229 254.668C478.123 260.64 478.569 264.444 477.832 270.658C474.962 274.523 473.301 275.949 468.533 276.853C446.581 276.658 424.7 273.201 403.033 269.881C393.506 268.437 384.244 267.432 374.605 267.496C373.38 267.503 372.155 267.51 370.893 267.517C342.747 268.009 318.577 279.315 298.061 298.441C288.378 308.755 279.982 320.486 274.086 333.364C272.815 336.135 271.395 338.708 269.84 341.327C266.504 347.221 264.012 353.292 261.546 359.582C260.955 361.059 260.365 362.536 259.757 364.058C259.207 365.462 258.657 366.867 258.09 368.314C256.339 371.834 256.339 371.834 252.237 374.568C247.505 374.59 247.505 374.59 242.666 373.201C239.878 369.505 239.878 369.505 237.71 364.656C236.626 362.319 236.626 362.319 235.52 359.935C232.888 353.719 230.519 347.402 228.113 341.096C224.977 332.957 221.687 324.881 218.398 316.802C217.723 315.133 217.048 313.464 216.352 311.745C215.709 310.164 215.066 308.583 214.403 306.954C213.823 305.528 213.244 304.101 212.647 302.632C211.51 299.494 211.51 299.494 209.852 298.003C208.495 284.025 210.709 272.425 215.4 259.269C217.892 252.209 220.244 245.102 222.615 238.001C223.222 236.185 223.831 234.371 224.44 232.556C228.24 221.244 231.829 209.924 234.885 198.387C237.031 190.348 239.64 182.507 242.346 174.641C245.22 166.194 247.611 157.653 249.743 148.99C252.492 138.401 257.601 131.485 266.908 125.602C271.142 123.911 274.777 124.002 279.325 124.021Z" fill="#FC4D04"/>
</svg>
