<svg width="1554" height="432" viewBox="0 0 1554 432" fill="none" xmlns="http://www.w3.org/2000/svg">
<path d="M289.518 182.916C291.019 183.091 291.019 183.091 292.549 183.27C294.658 183.517 296.766 183.768 298.874 184.021C302.055 184.4 305.237 184.763 308.42 185.125C330.564 187.717 343.06 190.923 357.448 208.255C360.014 211.318 362.652 214.318 365.281 217.327C369.526 222.204 373.654 227.16 377.723 232.187C380.408 235.425 383.242 238.517 386.075 241.625C388.988 244.903 391.719 248.319 394.471 251.733C396.787 254.509 399.213 257.148 401.679 259.791C407.382 266.071 410.596 270.349 410.222 279.149C409.312 285.655 406.01 289.616 401.351 293.999C398.462 296.865 396.005 300.06 393.455 303.227C390.682 306.645 387.788 309.954 384.893 313.269C381.308 317.377 377.776 321.511 374.351 325.755C370.793 330.152 367.023 334.312 363.194 338.473C360.166 341.845 357.333 345.356 354.488 348.883C351.706 352.253 348.782 355.481 345.827 358.7C344.483 360.205 343.198 361.763 341.962 363.356C337.978 368.173 332.085 370.432 325.997 371.223C320.552 371.396 315.686 370.878 310.364 369.772C309.219 369.544 309.219 369.544 308.05 369.312C305.57 368.816 303.091 368.312 300.613 367.807C297.143 367.11 293.673 366.418 290.203 365.727C288.897 365.466 288.897 365.466 287.564 365.2C281.907 364.077 276.242 363.02 270.561 362.024C269.845 361.898 269.129 361.771 268.391 361.641C265.674 361.164 262.957 360.688 260.237 360.23C258.397 359.92 256.559 359.599 254.721 359.278C253.694 359.104 252.667 358.93 251.608 358.75C248.448 357.961 245.888 356.833 243.071 355.203C241.59 352.24 241.803 349.994 242.129 346.722C243.639 344.611 244.946 343.069 246.781 341.303C247.747 340.315 248.71 339.325 249.671 338.333C250.152 337.842 250.633 337.352 251.129 336.846C253.083 334.796 254.849 332.618 256.617 330.408C260.037 326.158 263.572 322.029 267.16 317.922C271.836 312.551 276.443 307.153 280.765 301.489C281.322 300.762 281.88 300.034 282.454 299.285C288.777 290.673 294.099 280.783 296.784 270.392C296.957 269.736 297.129 269.08 297.307 268.404C297.939 264.3 297.939 260.228 297.962 256.08C297.982 255.237 298.001 254.393 298.021 253.524C298.073 244.611 295.654 237.143 291.366 229.4C291.074 228.848 290.783 228.295 290.482 227.726C287.152 221.58 282.991 215.999 278.911 210.337C277.022 207.71 275.152 205.069 273.285 202.426C272.64 201.543 271.996 200.66 271.332 199.75C267.632 194.464 265.627 191.139 266.629 184.639C270.78 178.864 283.307 182.179 289.518 182.916Z" fill="#FC4D04"/>
<path d="M114.912 183.697C120.171 186.713 121.498 191.211 123.496 196.621C123.846 197.531 124.196 198.441 124.556 199.378C125.674 202.294 126.772 205.216 127.869 208.139C129.311 211.939 130.761 215.736 132.213 219.532C132.75 220.937 132.75 220.937 133.297 222.371C135.801 228.885 138.423 235.339 141.161 241.758C141.504 242.565 141.847 243.371 142.2 244.203C149.387 260.844 161.104 274.087 177.929 281.54C196.872 289.04 216.711 289.611 236.824 289.743C237.869 289.757 237.869 289.757 238.936 289.772C240.848 289.797 242.759 289.809 244.671 289.819C247.942 290.2 249.289 290.656 251.552 293.009C252.107 295.618 252.107 295.618 251.552 298.663C249.911 300.981 248.348 302.91 246.428 304.965C245.375 306.139 244.324 307.315 243.273 308.491C242.493 309.352 242.493 309.352 241.697 310.231C239.768 312.386 237.939 314.613 236.121 316.862C231.826 322.149 227.496 327.405 223.16 332.658C222.621 333.312 222.081 333.967 221.525 334.641C220.746 335.577 220.746 335.577 219.951 336.532C218.828 337.921 217.782 339.373 216.762 340.84C212.332 345.611 205.88 347.342 199.701 348.78C198.656 349.035 198.656 349.035 197.59 349.295C196.116 349.654 194.641 350.01 193.165 350.361C189.325 351.276 185.491 352.221 181.656 353.16C180.914 353.341 180.171 353.522 179.406 353.709C174.335 354.947 169.288 356.246 164.267 357.677C163.655 357.851 163.043 358.025 162.413 358.204C161.139 358.567 159.865 358.93 158.591 359.293C153.721 360.659 148.833 361.96 143.948 363.272C142.898 363.555 141.847 363.837 140.765 364.129C136.247 365.344 131.727 366.554 127.199 367.737C126.199 367.999 126.199 367.999 125.179 368.267C123.474 368.713 121.768 369.154 120.062 369.596C117.811 370.058 117.811 370.058 116.797 371.223C111.907 371.731 107.721 371.844 103.251 369.692C97.7101 364.679 95.1919 360.37 92.9511 353.348C92.3845 351.654 91.8167 349.961 91.2477 348.268C90.9568 347.392 90.6659 346.516 90.3662 345.614C88.8969 341.256 87.3233 336.938 85.751 332.616C85.1049 330.833 84.4589 329.049 83.8129 327.265C83.1461 325.427 82.4792 323.588 81.8123 321.75C80.7598 318.846 79.7075 315.941 78.6553 313.037C77.9495 311.089 77.2435 309.14 76.5375 307.192C74.2574 300.9 71.9842 294.605 69.7165 288.308C69.4295 287.511 69.1425 286.715 68.8468 285.894C66.6482 279.792 66.6482 279.792 65.59 276.848C64.8634 274.827 64.1354 272.807 63.4072 270.786C63.0009 269.657 62.5945 268.527 62.1759 267.364C61.2849 264.827 61.2849 264.827 60.2562 262.854C59.2422 250.454 61.0526 243.03 69.0318 233.229C69.7679 232.363 70.5041 231.497 71.2625 230.604C73.3461 228.11 75.2664 225.562 77.1595 222.922C80.1504 218.755 83.2257 214.667 86.3694 210.614C89.0281 207.182 91.6546 203.727 94.2652 200.258C94.9406 199.363 95.616 198.468 96.3118 197.546C97.6638 195.754 99.0124 193.959 100.357 192.162C100.98 191.338 101.604 190.513 102.246 189.664C102.803 188.923 103.359 188.181 103.933 187.418C107.269 183.48 109.947 183.183 114.912 183.697Z" fill="#FC4D04"/>
<path d="M186.353 60.0147C187.467 60.0099 188.581 60.005 189.728 60C193.312 60.264 196.273 61.1419 199.722 62.135C202.122 62.6494 204.516 63.1389 206.926 63.5964C207.603 63.7273 208.28 63.8582 208.977 63.993C211.173 64.4169 213.369 64.8367 215.565 65.2565C217.102 65.5525 218.638 65.8487 220.175 66.1452C224.665 67.011 229.155 67.8718 233.647 68.7314C235.876 69.1584 238.106 69.5854 240.335 70.0124C241.827 70.298 241.827 70.298 243.349 70.5894C247.229 71.334 251.109 72.0847 254.988 72.8357C257.892 73.394 260.798 73.9434 263.705 74.4907C266.273 74.9767 268.839 75.4716 271.405 75.9682C273.225 76.3177 275.047 76.6568 276.869 76.9955C286.321 78.838 293.901 80.5628 300.11 88.3273C302.382 91.7347 303.699 95.2467 304.97 99.1219C305.267 99.9803 305.564 100.839 305.871 101.723C306.946 104.854 307.99 107.995 309.034 111.137C309.497 112.517 309.962 113.898 310.426 115.278C313.15 123.371 315.858 131.469 318.529 139.58C319.683 143.082 320.862 146.574 322.065 150.06C323.37 154.176 323.677 156.798 323.169 161.081C321.191 163.745 320.046 164.727 316.76 165.351C301.63 165.216 286.549 162.833 271.615 160.545C265.049 159.55 258.666 158.857 252.022 158.902C251.178 158.906 250.334 158.911 249.464 158.916C230.065 159.255 213.406 167.047 199.266 180.229C192.592 187.339 186.806 195.424 182.742 204.3C181.866 206.209 180.887 207.983 179.815 209.788C177.516 213.85 175.798 218.034 174.099 222.37C173.692 223.388 173.285 224.406 172.866 225.454C172.487 226.423 172.108 227.391 171.717 228.388C170.51 230.814 170.51 230.814 167.683 232.699C164.421 232.713 164.421 232.713 161.086 231.756C159.165 229.209 159.165 229.209 157.67 225.867C156.923 224.256 156.923 224.256 156.161 222.613C154.347 218.329 152.714 213.975 151.056 209.629C148.894 204.019 146.627 198.453 144.36 192.885C143.895 191.734 143.429 190.584 142.95 189.399C142.507 188.309 142.063 187.22 141.606 186.097C141.207 185.114 140.808 184.131 140.396 183.118C139.613 180.956 139.613 180.956 138.47 179.928C137.535 170.293 139.06 162.298 142.294 153.231C144.011 148.366 145.632 143.467 147.267 138.572C147.685 137.321 148.104 136.071 148.524 134.82C151.144 127.023 153.617 119.221 155.723 111.27C157.202 105.729 159.001 100.325 160.866 94.9034C162.846 89.0815 164.494 83.1948 165.964 77.2235C167.859 69.9257 171.38 65.1586 177.794 61.1043C180.713 59.9389 183.218 60.0011 186.353 60.0147Z" fill="#FC4D04"/>
<path d="M519.544 268.094C484.408 268.094 460.252 242.718 460.252 205.63C460.252 168.298 483.92 142.434 518.568 142.434C552.484 142.434 574.688 165.858 574.688 201.238V209.778L482.456 210.022C484.164 235.154 497.34 249.062 520.032 249.062C537.844 249.062 549.556 241.742 553.46 228.078H574.932C569.076 253.698 549.068 268.094 519.544 268.094ZM518.568 161.71C498.56 161.71 485.872 173.666 482.944 194.65H551.752C551.752 174.886 538.82 161.71 518.568 161.71Z" fill="#FC4D04"/>
<path d="M623.242 265.166H600.306V145.85H621.046L623.486 164.15C631.05 150.486 646.178 142.434 663.014 142.434C694.49 142.434 708.886 161.71 708.886 192.21V265.166H685.95V197.334C685.95 173.178 674.726 163.418 657.158 163.418C635.686 163.418 623.242 178.79 623.242 201.97V265.166Z" fill="#FC4D04"/>
<path d="M729.464 230.518H751.424C751.424 242.718 760.696 250.038 775.824 250.038C791.928 250.038 801.2 243.45 801.2 232.47C801.2 224.418 797.296 219.538 784.852 216.366L763.868 211.486C742.64 206.362 732.636 195.87 732.636 178.302C732.636 156.342 751.18 142.434 777.532 142.434C803.64 142.434 820.72 157.074 821.208 179.766H799.248C798.76 167.81 790.708 160.246 776.8 160.246C762.404 160.246 754.352 166.59 754.352 177.57C754.352 185.622 760.208 190.99 771.92 193.918L792.904 199.042C813.156 203.922 823.16 213.194 823.16 231.006C823.16 253.698 803.64 268.094 775.336 268.094C747.276 268.094 729.464 253.21 729.464 230.518Z" fill="#FC4D04"/>
<path d="M900.079 268.094C864.943 268.094 840.787 242.718 840.787 205.63C840.787 168.298 864.455 142.434 899.103 142.434C933.019 142.434 955.223 165.858 955.223 201.238V209.778L862.991 210.022C864.699 235.154 877.875 249.062 900.567 249.062C918.379 249.062 930.091 241.742 933.995 228.078H955.467C949.611 253.698 929.603 268.094 900.079 268.094ZM899.103 161.71C879.095 161.71 866.407 173.666 863.479 194.65H932.287C932.287 174.886 919.355 161.71 899.103 161.71Z" fill="#FC4D04"/>
<path d="M1003.78 265.166H980.841V145.85H1001.34L1003.53 161.466C1009.63 150.242 1022.32 142.434 1039.16 142.434C1057.7 142.434 1070.88 151.706 1076.98 166.59C1082.59 151.706 1096.99 142.434 1115.53 142.434C1142.86 142.434 1159.45 159.514 1159.45 187.086V265.166H1137V192.698C1137 173.91 1126.51 163.174 1110.41 163.174C1093.08 163.174 1081.61 175.374 1081.61 194.406V265.166H1058.92V192.454C1058.92 173.666 1048.67 163.418 1032.57 163.418C1015.25 163.418 1003.78 175.374 1003.78 194.406V265.166Z" fill="#FC4D04"/>
<path d="M1211.98 265.166H1191.24V85.5815H1214.18V166.346C1221.99 150.73 1238.09 142.434 1257.61 142.434C1291.77 142.434 1312.27 169.274 1312.27 206.118C1312.27 242.23 1290.8 268.094 1256.15 268.094C1237.36 268.094 1221.5 259.798 1213.69 243.45L1211.98 265.166ZM1214.42 205.142C1214.42 230.03 1228.58 247.354 1252 247.354C1275.42 247.354 1289.33 229.786 1289.33 205.142C1289.33 180.742 1275.42 163.174 1252 163.174C1228.58 163.174 1214.42 180.742 1214.42 205.142Z" fill="#FC4D04"/>
<path d="M1360.97 265.166H1338.04V85.5815H1360.97V265.166Z" fill="#FC4D04"/>
<path d="M1429.63 268.094C1404.01 268.094 1388.88 253.698 1388.88 231.982C1388.88 210.022 1405.23 196.358 1433.29 194.162L1470.86 191.234V187.818C1470.86 167.81 1458.91 160.734 1442.8 160.734C1423.53 160.734 1412.55 169.274 1412.55 183.67H1392.54C1392.54 158.782 1413.04 142.434 1443.78 142.434C1473.3 142.434 1493.31 158.05 1493.31 190.258V265.166H1473.79L1471.35 245.89C1465.25 259.554 1448.9 268.094 1429.63 268.094ZM1436.22 250.282C1457.93 250.282 1471.11 236.13 1471.11 213.682V207.338L1440.61 209.778C1420.36 211.73 1412.06 219.538 1412.06 231.25C1412.06 243.938 1421.33 250.282 1436.22 250.282Z" fill="#FC4D04"/>
<path d="M481.42 345.374H460.252V310.67H481.42V314.99H464.956V325.838H479.788V330.014H464.956V341.006H481.42V345.374Z" fill="#FC4D04"/>
<path d="M509.404 345.374L496.204 310.67H501.244L509.692 332.846C510.46 334.814 511.132 336.782 511.852 339.374C512.668 336.638 513.484 334.334 514.06 332.798L522.46 310.67H527.356L514.3 345.374H509.404Z" fill="#FC4D04"/>
<path d="M564.554 345.374H543.386V310.67H564.554V314.99H548.09V325.838H562.922V330.014H548.09V341.006H564.554V345.374Z" fill="#FC4D04"/>
<path d="M587.594 345.374H582.89V310.67H595.994C603.434 310.67 607.85 314.606 607.85 321.086C607.85 325.886 605.45 329.342 601.13 330.734L608.186 345.374H602.954L596.474 331.646H587.594V345.374ZM587.594 314.894V327.47H596.042C600.41 327.47 602.906 325.118 602.906 321.134C602.906 317.102 600.314 314.894 595.994 314.894H587.594Z" fill="#FC4D04"/>
<path d="M633.368 331.262L621.608 310.67H626.888L634.616 324.542C635.096 325.358 635.384 326.03 635.768 326.846C636.2 325.982 636.296 325.694 636.92 324.542L644.6 310.67H649.736L638.072 331.262V345.374H633.368V331.262Z" fill="#FC4D04"/>
<path d="M708.77 330.638H695.138V345.374H690.434V310.67H711.362V314.99H695.138V326.366H708.77V330.638Z" fill="#FC4D04"/>
<path d="M733.283 310.67V345.374H728.579V310.67H733.283Z" fill="#FC4D04"/>
<path d="M757.6 310.67V341.006H772.864V345.374H752.896V310.67H757.6Z" fill="#FC4D04"/>
<path d="M794.102 345.374H789.494V310.67H794.102L806.054 339.854L818.006 310.67H822.71V345.374H818.102V331.646C818.102 325.166 818.15 322.814 818.39 320.366L808.262 345.374H803.846L793.766 320.462C794.006 322.142 794.102 325.694 794.102 330.542V345.374Z" fill="#FC4D04"/>
<path d="M844.903 345.95C843.031 345.95 841.447 344.414 841.447 342.59C841.447 340.718 843.031 339.182 844.903 339.182C846.727 339.182 848.311 340.718 848.311 342.59C848.311 344.414 846.727 345.95 844.903 345.95Z" fill="#FC4D04"/>
<path d="M912.91 345.374H891.742V310.67H912.91V314.99H896.446V325.838H911.278V330.014H896.446V341.006H912.91V345.374Z" fill="#FC4D04"/>
<path d="M940.894 345.374L927.694 310.67H932.734L941.182 332.846C941.95 334.814 942.622 336.782 943.342 339.374C944.158 336.638 944.974 334.334 945.55 332.798L953.95 310.67H958.846L945.79 345.374H940.894Z" fill="#FC4D04"/>
<path d="M996.044 345.374H974.876V310.67H996.044V314.99H979.58V325.838H994.412V330.014H979.58V341.006H996.044V345.374Z" fill="#FC4D04"/>
<path d="M1019.08 345.374H1014.38V310.67H1027.48C1034.92 310.67 1039.34 314.606 1039.34 321.086C1039.34 325.886 1036.94 329.342 1032.62 330.734L1039.68 345.374H1034.44L1027.96 331.646H1019.08V345.374ZM1019.08 314.894V327.47H1027.53C1031.9 327.47 1034.4 325.118 1034.4 321.134C1034.4 317.102 1031.8 314.894 1027.48 314.894H1019.08Z" fill="#FC4D04"/>
<path d="M1064.86 331.262L1053.1 310.67H1058.38L1066.11 324.542C1066.59 325.358 1066.87 326.03 1067.26 326.846C1067.69 325.982 1067.79 325.694 1068.41 324.542L1076.09 310.67H1081.23L1069.56 331.262V345.374H1064.86V331.262Z" fill="#FC4D04"/>
<path d="M1136.32 345.902C1126.44 345.902 1119.86 338.798 1119.86 328.046C1119.86 317.342 1126.63 310.094 1136.56 310.094C1144.39 310.094 1150.39 314.75 1151.68 321.854H1146.64C1145.35 317.342 1141.46 314.606 1136.42 314.606C1129.41 314.606 1124.8 319.886 1124.8 327.998C1124.8 336.11 1129.41 341.39 1136.42 341.39C1141.51 341.39 1145.54 338.654 1146.84 334.382H1151.83C1150.34 341.294 1144.15 345.902 1136.32 345.902Z" fill="#FC4D04"/>
<path d="M1173.82 345.374H1169.12V310.67H1182.22C1189.66 310.67 1194.08 314.606 1194.08 321.086C1194.08 325.886 1191.68 329.342 1187.36 330.734L1194.41 345.374H1189.18L1182.7 331.646H1173.82V345.374ZM1173.82 314.894V327.47H1182.27C1186.64 327.47 1189.13 325.118 1189.13 321.134C1189.13 317.102 1186.54 314.894 1182.22 314.894H1173.82Z" fill="#FC4D04"/>
<path d="M1233.21 345.374H1212.04V310.67H1233.21V314.99H1216.75V325.838H1231.58V330.014H1216.75V341.006H1233.21V345.374Z" fill="#FC4D04"/>
<path d="M1263.02 345.374H1251.55V310.67H1262.83C1273.19 310.67 1280.2 317.678 1280.2 328.046C1280.2 338.366 1273.29 345.374 1263.02 345.374ZM1262.49 314.99H1256.25V341.006H1262.68C1270.41 341.006 1275.31 336.014 1275.31 328.046C1275.31 319.982 1270.41 314.99 1262.49 314.99Z" fill="#FC4D04"/>
<path d="M1302.41 310.67V345.374H1297.71V310.67H1302.41Z" fill="#FC4D04"/>
<path d="M1318.66 314.99V310.67H1344.25V314.99H1333.83V345.374H1329.13V314.99H1318.66Z" fill="#FC4D04"/>
</svg>
