<svg width="1254" height="1254" viewBox="0 0 1254 1254" fill="none" xmlns="http://www.w3.org/2000/svg">
<path d="M209.199 993H188.031V958.296H209.199V962.616H192.735V973.464H207.567V977.64H192.735V988.632H209.199V993Z" fill="#101314"/>
<path d="M237.184 993L223.984 958.296H229.024L237.472 980.472C238.24 982.44 238.912 984.408 239.632 987C240.448 984.264 241.264 981.96 241.84 980.424L250.24 958.296H255.136L242.08 993H237.184Z" fill="#101314"/>
<path d="M292.333 993H271.165V958.296H292.333V962.616H275.869V973.464H290.701V977.64H275.869V988.632H292.333V993Z" fill="#101314"/>
<path d="M315.373 993H310.669V958.296H323.773C331.213 958.296 335.629 962.232 335.629 968.712C335.629 973.512 333.229 976.968 328.909 978.36L335.965 993H330.733L324.253 979.272H315.373V993ZM315.373 962.52V975.096H323.821C328.189 975.096 330.685 972.744 330.685 968.76C330.685 964.728 328.093 962.52 323.773 962.52H315.373Z" fill="#101314"/>
<path d="M361.147 978.888L349.387 958.296H354.667L362.395 972.168C362.875 972.984 363.163 973.656 363.547 974.472C363.979 973.608 364.075 973.32 364.699 972.168L372.379 958.296H377.515L365.851 978.888V993H361.147V978.888Z" fill="#101314"/>
<path d="M436.55 978.264H422.918V993H418.214V958.296H439.142V962.616H422.918V973.992H436.55V978.264Z" fill="#101314"/>
<path d="M461.063 958.296V993H456.359V958.296H461.063Z" fill="#101314"/>
<path d="M485.38 958.296V988.632H500.644V993H480.676V958.296H485.38Z" fill="#101314"/>
<path d="M521.882 993H517.274V958.296H521.882L533.834 987.48L545.786 958.296H550.49V993H545.882V979.272C545.882 972.792 545.93 970.44 546.17 967.992L536.042 993H531.626L521.546 968.088C521.786 969.768 521.882 973.32 521.882 978.168V993Z" fill="#101314"/>
<path d="M572.683 993.576C570.811 993.576 569.227 992.04 569.227 990.216C569.227 988.344 570.811 986.808 572.683 986.808C574.507 986.808 576.091 988.344 576.091 990.216C576.091 992.04 574.507 993.576 572.683 993.576Z" fill="#101314"/>
<path d="M640.689 993H619.521V958.296H640.689V962.616H624.225V973.464H639.057V977.64H624.225V988.632H640.689V993Z" fill="#101314"/>
<path d="M668.674 993L655.474 958.296H660.514L668.962 980.472C669.73 982.44 670.402 984.408 671.122 987C671.938 984.264 672.754 981.96 673.33 980.424L681.73 958.296H686.626L673.57 993H668.674Z" fill="#101314"/>
<path d="M723.823 993H702.655V958.296H723.823V962.616H707.359V973.464H722.191V977.64H707.359V988.632H723.823V993Z" fill="#101314"/>
<path d="M746.863 993H742.159V958.296H755.263C762.703 958.296 767.119 962.232 767.119 968.712C767.119 973.512 764.719 976.968 760.399 978.36L767.455 993H762.223L755.743 979.272H746.863V993ZM746.863 962.52V975.096H755.311C759.679 975.096 762.175 972.744 762.175 968.76C762.175 964.728 759.583 962.52 755.263 962.52H746.863Z" fill="#101314"/>
<path d="M792.637 978.888L780.877 958.296H786.157L793.885 972.168C794.365 972.984 794.653 973.656 795.037 974.472C795.469 973.608 795.565 973.32 796.189 972.168L803.869 958.296H809.005L797.341 978.888V993H792.637V978.888Z" fill="#101314"/>
<path d="M864.104 993.528C854.216 993.528 847.64 986.424 847.64 975.672C847.64 964.968 854.408 957.72 864.344 957.72C872.168 957.72 878.168 962.376 879.464 969.48H874.424C873.128 964.968 869.24 962.232 864.2 962.232C857.192 962.232 852.584 967.512 852.584 975.624C852.584 983.736 857.192 989.016 864.2 989.016C869.288 989.016 873.32 986.28 874.616 982.008H879.608C878.12 988.92 871.928 993.528 864.104 993.528Z" fill="#101314"/>
<path d="M901.6 993H896.896V958.296H910C917.44 958.296 921.856 962.232 921.856 968.712C921.856 973.512 919.456 976.968 915.136 978.36L922.192 993H916.96L910.48 979.272H901.6V993ZM901.6 962.52V975.096H910.048C914.416 975.096 916.912 972.744 916.912 968.76C916.912 964.728 914.32 962.52 910 962.52H901.6Z" fill="#101314"/>
<path d="M960.99 993H939.822V958.296H960.99V962.616H944.526V973.464H959.358V977.64H944.526V988.632H960.99V993Z" fill="#101314"/>
<path d="M990.798 993H979.326V958.296H990.606C1000.97 958.296 1007.98 965.304 1007.98 975.672C1007.98 985.992 1001.07 993 990.798 993ZM990.27 962.616H984.03V988.632H990.462C998.19 988.632 1003.09 983.64 1003.09 975.672C1003.09 967.608 998.19 962.616 990.27 962.616Z" fill="#101314"/>
<path d="M1030.19 958.296V993H1025.49V958.296H1030.19Z" fill="#101314"/>
<path d="M1046.44 962.616V958.296H1072.03V962.616H1061.61V993H1056.91V962.616H1046.44Z" fill="#101314"/>
<path d="M707.007 363.339C709.184 363.593 709.184 363.593 711.405 363.852C714.465 364.211 717.523 364.575 720.582 364.942C725.197 365.492 729.814 366.018 734.432 366.544C766.561 370.304 784.692 374.956 805.566 400.103C809.29 404.547 813.117 408.899 816.932 413.265C823.091 420.342 829.08 427.533 834.983 434.826C838.88 439.523 842.991 444.01 847.102 448.52C851.329 453.276 855.291 458.232 859.284 463.185C862.643 467.213 866.164 471.042 869.741 474.876C878.016 483.987 882.679 490.196 882.137 502.964C880.816 512.402 876.025 518.149 869.266 524.508C865.074 528.667 861.509 533.303 857.81 537.898C853.787 542.856 849.587 547.658 845.387 552.467C840.185 558.428 835.061 564.426 830.091 570.583C824.929 576.963 819.46 582.999 813.903 589.036C809.51 593.928 805.4 599.023 801.272 604.139C797.236 609.03 792.993 613.713 788.706 618.383C786.757 620.567 784.892 622.827 783.098 625.139C777.319 632.128 768.767 635.405 759.935 636.553C752.034 636.804 744.974 636.052 737.252 634.448C735.591 634.117 735.591 634.117 733.896 633.78C730.297 633.061 726.701 632.329 723.105 631.596C718.071 630.585 713.036 629.581 708.001 628.579C706.106 628.2 706.106 628.2 704.172 627.814C695.964 626.185 687.745 624.652 679.502 623.206C678.463 623.023 677.424 622.84 676.354 622.651C672.412 621.958 668.47 621.268 664.524 620.603C661.854 620.153 659.188 619.688 656.521 619.222C655.031 618.969 653.54 618.717 652.004 618.456C647.418 617.311 643.704 615.675 639.617 613.31C637.468 609.011 637.778 605.752 638.25 601.004C640.441 597.941 642.338 595.705 645.001 593.143C646.402 591.709 647.799 590.273 649.193 588.833C649.892 588.121 650.59 587.409 651.309 586.676C654.143 583.702 656.705 580.54 659.272 577.334C664.234 571.169 669.363 565.178 674.568 559.218C681.352 551.426 688.037 543.594 694.307 535.377C695.116 534.321 695.925 533.265 696.759 532.178C705.932 519.683 713.654 505.334 717.55 490.258C717.8 489.306 718.051 488.354 718.309 487.374C719.226 481.418 719.225 475.51 719.259 469.493C719.287 468.269 719.316 467.045 719.345 465.784C719.419 452.852 715.911 442.017 709.689 430.783C709.266 429.981 708.843 429.179 708.407 428.353C703.574 419.436 697.538 411.338 691.617 403.124C688.876 399.312 686.164 395.48 683.455 391.646C682.52 390.364 681.585 389.083 680.621 387.763C675.253 380.093 672.344 375.269 673.798 365.839C679.821 357.46 697.996 362.27 707.007 363.339Z" fill="#101314"/>
<path d="M453.672 364.472C461.302 368.847 463.227 375.374 466.127 383.223C466.634 384.543 467.141 385.864 467.664 387.224C469.286 391.454 470.88 395.693 472.471 399.935C474.563 405.448 476.666 410.957 478.774 416.464C479.552 418.503 479.552 418.503 480.347 420.583C483.979 430.034 487.783 439.399 491.757 448.712C492.254 449.883 492.751 451.053 493.263 452.26C503.692 476.404 520.692 495.618 545.104 506.432C572.587 517.314 601.372 518.142 630.553 518.334C632.07 518.354 632.07 518.354 633.619 518.375C636.392 518.412 639.165 518.429 641.938 518.444C646.685 518.997 648.639 519.658 651.922 523.072C652.728 526.858 652.728 526.858 651.922 531.275C649.541 534.639 647.274 537.438 644.487 540.419C642.96 542.123 641.435 543.828 639.91 545.535C638.779 546.785 638.779 546.785 637.624 548.06C634.826 551.187 632.172 554.418 629.533 557.68C623.303 565.351 617.019 572.977 610.729 580.599C609.946 581.549 609.164 582.498 608.357 583.476C607.227 584.834 607.227 584.834 606.073 586.22C604.443 588.236 602.926 590.342 601.446 592.47C595.018 599.392 585.657 601.904 576.692 603.99C575.176 604.36 575.176 604.36 573.63 604.738C571.491 605.259 569.351 605.775 567.209 606.285C561.637 607.612 556.075 608.983 550.511 610.346C549.434 610.608 548.356 610.871 547.246 611.141C539.889 612.938 532.565 614.823 525.281 616.899C524.393 617.151 523.506 617.404 522.591 617.665C520.743 618.191 518.894 618.717 517.046 619.244C509.98 621.226 502.888 623.113 495.8 625.017C494.276 625.427 492.752 625.837 491.183 626.26C484.626 628.023 478.068 629.779 471.499 631.495C470.048 631.876 470.048 631.876 468.568 632.264C466.094 632.911 463.619 633.552 461.144 634.192C457.878 634.863 457.878 634.863 456.406 636.553C449.312 637.29 443.239 637.454 436.752 634.331C428.714 627.058 425.06 620.806 421.809 610.618C420.987 608.161 420.163 605.704 419.337 603.248C418.915 601.977 418.493 600.706 418.058 599.397C415.926 593.075 413.643 586.808 411.362 580.539C410.425 577.951 409.487 575.362 408.55 572.774C407.583 570.107 406.615 567.44 405.647 564.773C404.12 560.559 402.594 556.345 401.067 552.131C400.043 549.304 399.019 546.477 397.994 543.651C394.686 534.521 391.388 525.388 388.098 516.252C387.681 515.096 387.265 513.94 386.836 512.75C383.646 503.896 383.646 503.896 382.111 499.625C381.056 496.693 380 493.761 378.944 490.83C378.354 489.191 377.764 487.552 377.157 485.864C375.864 482.183 375.864 482.183 374.372 479.32C372.901 461.329 375.527 450.558 387.104 436.337C388.172 435.081 389.24 433.824 390.341 432.529C393.364 428.911 396.15 425.214 398.897 421.383C403.236 415.337 407.698 409.406 412.259 403.525C416.117 398.545 419.928 393.533 423.715 388.5C424.695 387.202 425.675 385.903 426.685 384.566C428.646 381.966 430.603 379.362 432.554 376.754C433.458 375.558 434.363 374.362 435.294 373.129C436.102 372.054 436.91 370.978 437.743 369.87C442.582 364.157 446.468 363.727 453.672 364.472Z" fill="#101314"/>
<path d="M557.325 185.021C558.941 185.014 560.557 185.007 562.222 185C567.422 185.383 571.718 186.657 576.722 188.098C580.204 188.844 583.677 189.554 587.174 190.218C588.156 190.408 589.139 190.598 590.151 190.794C593.336 191.409 596.523 192.018 599.709 192.627C601.938 193.056 604.167 193.486 606.397 193.916C612.911 195.172 619.427 196.421 625.943 197.668C629.178 198.288 632.413 198.907 635.647 199.527C637.812 199.941 637.812 199.941 640.02 200.364C645.65 201.444 651.279 202.534 656.907 203.623C661.121 204.433 665.337 205.23 669.554 206.025C673.28 206.73 677.004 207.448 680.727 208.168C683.367 208.675 686.011 209.167 688.654 209.659C702.368 212.332 713.366 214.835 722.374 226.1C725.671 231.044 727.583 236.139 729.426 241.762C729.857 243.007 730.289 244.253 730.733 245.536C732.294 250.079 733.808 254.636 735.322 259.194C735.995 261.198 736.668 263.201 737.343 265.203C741.295 276.945 745.223 288.695 749.099 300.462C750.773 305.544 752.484 310.61 754.229 315.668C756.123 321.64 756.568 325.444 755.831 331.658C752.962 335.523 751.301 336.949 746.533 337.853C724.58 337.658 702.699 334.201 681.032 330.881C671.505 329.437 662.243 328.432 652.604 328.496C651.38 328.503 650.155 328.51 648.893 328.517C620.747 329.009 596.576 340.315 576.06 359.441C566.377 369.755 557.982 381.486 552.085 394.364C550.814 397.135 549.395 399.708 547.839 402.327C544.503 408.221 542.011 414.292 539.545 420.582C538.955 422.059 538.364 423.536 537.756 425.058C537.206 426.462 536.656 427.867 536.09 429.314C534.338 432.834 534.338 432.834 530.236 435.568C525.504 435.59 525.504 435.59 520.666 434.201C517.878 430.505 517.878 430.505 515.709 425.656C514.625 423.319 514.625 423.319 513.52 420.935C510.888 414.719 508.518 408.402 506.113 402.096C502.976 393.957 499.687 385.881 496.397 377.802C495.722 376.133 495.047 374.464 494.351 372.745C493.708 371.164 493.065 369.583 492.402 367.954C491.823 366.528 491.243 365.101 490.646 363.632C489.509 360.494 489.509 360.494 487.852 359.003C486.495 345.025 488.708 333.425 493.399 320.269C495.891 313.209 498.243 306.102 500.615 299.001C501.222 297.185 501.83 295.371 502.439 293.556C506.24 282.244 509.828 270.924 512.884 259.387C515.03 251.348 517.639 243.507 520.346 235.641C523.219 227.194 525.61 218.653 527.742 209.99C530.492 199.401 535.601 192.485 544.907 186.602C549.142 184.911 552.776 185.002 557.325 185.021Z" fill="#101314"/>
<path d="M223.92 895H200.496V718.588H223.92L284.676 866.94L345.432 718.588H369.344V895H345.92V825.216C345.92 792.276 346.164 780.32 347.384 767.876L295.9 895H273.452L222.212 768.364C223.432 776.904 223.92 794.96 223.92 819.604V895Z" fill="black"/>
<path d="M488.99 775.684H511.682V895H491.186L488.746 876.944C481.914 889.388 466.054 897.928 448.486 897.928C420.67 897.928 405.054 879.14 405.054 849.86V775.684H427.99V842.296C427.99 867.916 438.97 877.676 456.538 877.676C477.522 877.676 488.99 864.256 488.99 838.636V775.684Z" fill="black"/>
<path d="M578.387 895L530.319 775.684H554.719L580.827 842.296C584.975 853.52 588.391 863.524 590.343 870.844C592.295 863.036 596.199 852.788 600.347 842.296L626.943 775.684H650.855L601.079 895H578.387Z" fill="black"/>
<path d="M680.328 747.38C672.032 747.38 665.2 740.548 665.2 732.252C665.2 723.712 672.032 717.124 680.328 717.124C688.624 717.124 695.456 723.712 695.456 732.252C695.456 740.548 688.624 747.38 680.328 747.38ZM669.104 895V775.684H692.04V895H669.104Z" fill="black"/>
<path d="M787.558 895H729.242V718.588H786.582C839.286 718.588 874.91 754.212 874.91 806.916C874.91 859.376 839.774 895 787.558 895ZM784.874 740.548H753.154V872.796H785.85C825.134 872.796 850.022 847.42 850.022 806.916C850.022 765.924 825.134 740.548 784.874 740.548Z" fill="black"/>
<path d="M905.332 895V718.588H972.676C1007.08 718.588 1028.06 736.156 1028.06 765.192C1028.06 785.444 1019.28 799.108 1001.71 806.428C1021.23 812.772 1031.24 826.924 1031.24 847.908C1031.24 877.188 1010.01 895 975.116 895H905.332ZM971.212 739.816H929.244V796.424H972.676C992.44 796.424 1003.66 785.688 1003.66 767.388C1003.66 749.82 991.952 739.816 971.212 739.816ZM974.628 817.164H929.244V873.772H974.628C995.124 873.772 1006.59 863.28 1006.59 844.98C1006.59 827.412 994.88 817.164 974.628 817.164Z" fill="black"/>
</svg>
