<svg width="1254" height="1254" viewBox="0 0 1254 1254" fill="none" xmlns="http://www.w3.org/2000/svg">
<path d="M207.199 993H186.031V958.296H207.199V962.616H190.735V973.464H205.567V977.64H190.735V988.632H207.199V993Z" fill="#FC4D04"/>
<path d="M235.184 993L221.984 958.296H227.024L235.472 980.472C236.24 982.44 236.912 984.408 237.632 987C238.448 984.264 239.264 981.96 239.84 980.424L248.24 958.296H253.136L240.08 993H235.184Z" fill="#FC4D04"/>
<path d="M290.333 993H269.165V958.296H290.333V962.616H273.869V973.464H288.701V977.64H273.869V988.632H290.333V993Z" fill="#FC4D04"/>
<path d="M313.373 993H308.669V958.296H321.773C329.213 958.296 333.629 962.232 333.629 968.712C333.629 973.512 331.229 976.968 326.909 978.36L333.965 993H328.733L322.253 979.272H313.373V993ZM313.373 962.52V975.096H321.821C326.189 975.096 328.685 972.744 328.685 968.76C328.685 964.728 326.093 962.52 321.773 962.52H313.373Z" fill="#FC4D04"/>
<path d="M359.147 978.888L347.387 958.296H352.667L360.395 972.168C360.875 972.984 361.163 973.656 361.547 974.472C361.979 973.608 362.075 973.32 362.699 972.168L370.379 958.296H375.515L363.851 978.888V993H359.147V978.888Z" fill="#FC4D04"/>
<path d="M434.55 978.264H420.918V993H416.214V958.296H437.142V962.616H420.918V973.992H434.55V978.264Z" fill="#FC4D04"/>
<path d="M459.063 958.296V993H454.359V958.296H459.063Z" fill="#FC4D04"/>
<path d="M483.38 958.296V988.632H498.644V993H478.676V958.296H483.38Z" fill="#FC4D04"/>
<path d="M519.882 993H515.274V958.296H519.882L531.834 987.48L543.786 958.296H548.49V993H543.882V979.272C543.882 972.792 543.93 970.44 544.17 967.992L534.042 993H529.626L519.546 968.088C519.786 969.768 519.882 973.32 519.882 978.168V993Z" fill="#FC4D04"/>
<path d="M570.683 993.576C568.811 993.576 567.227 992.04 567.227 990.216C567.227 988.344 568.811 986.808 570.683 986.808C572.507 986.808 574.091 988.344 574.091 990.216C574.091 992.04 572.507 993.576 570.683 993.576Z" fill="#FC4D04"/>
<path d="M638.689 993H617.521V958.296H638.689V962.616H622.225V973.464H637.057V977.64H622.225V988.632H638.689V993Z" fill="#FC4D04"/>
<path d="M666.674 993L653.474 958.296H658.514L666.962 980.472C667.73 982.44 668.402 984.408 669.122 987C669.938 984.264 670.754 981.96 671.33 980.424L679.73 958.296H684.626L671.57 993H666.674Z" fill="#FC4D04"/>
<path d="M721.823 993H700.655V958.296H721.823V962.616H705.359V973.464H720.191V977.64H705.359V988.632H721.823V993Z" fill="#FC4D04"/>
<path d="M744.863 993H740.159V958.296H753.263C760.703 958.296 765.119 962.232 765.119 968.712C765.119 973.512 762.719 976.968 758.399 978.36L765.455 993H760.223L753.743 979.272H744.863V993ZM744.863 962.52V975.096H753.311C757.679 975.096 760.175 972.744 760.175 968.76C760.175 964.728 757.583 962.52 753.263 962.52H744.863Z" fill="#FC4D04"/>
<path d="M790.637 978.888L778.877 958.296H784.157L791.885 972.168C792.365 972.984 792.653 973.656 793.037 974.472C793.469 973.608 793.565 973.32 794.189 972.168L801.869 958.296H807.005L795.341 978.888V993H790.637V978.888Z" fill="#FC4D04"/>
<path d="M862.104 993.528C852.216 993.528 845.64 986.424 845.64 975.672C845.64 964.968 852.408 957.72 862.344 957.72C870.168 957.72 876.168 962.376 877.464 969.48H872.424C871.128 964.968 867.24 962.232 862.2 962.232C855.192 962.232 850.584 967.512 850.584 975.624C850.584 983.736 855.192 989.016 862.2 989.016C867.288 989.016 871.32 986.28 872.616 982.008H877.608C876.12 988.92 869.928 993.528 862.104 993.528Z" fill="#FC4D04"/>
<path d="M899.6 993H894.896V958.296H908C915.44 958.296 919.856 962.232 919.856 968.712C919.856 973.512 917.456 976.968 913.136 978.36L920.192 993H914.96L908.48 979.272H899.6V993ZM899.6 962.52V975.096H908.048C912.416 975.096 914.912 972.744 914.912 968.76C914.912 964.728 912.32 962.52 908 962.52H899.6Z" fill="#FC4D04"/>
<path d="M958.99 993H937.822V958.296H958.99V962.616H942.526V973.464H957.358V977.64H942.526V988.632H958.99V993Z" fill="#FC4D04"/>
<path d="M988.798 993H977.326V958.296H988.606C998.974 958.296 1005.98 965.304 1005.98 975.672C1005.98 985.992 999.07 993 988.798 993ZM988.27 962.616H982.03V988.632H988.462C996.19 988.632 1001.09 983.64 1001.09 975.672C1001.09 967.608 996.19 962.616 988.27 962.616Z" fill="#FC4D04"/>
<path d="M1028.19 958.296V993H1023.49V958.296H1028.19Z" fill="#FC4D04"/>
<path d="M1044.44 962.616V958.296H1070.03V962.616H1059.61V993H1054.91V962.616H1044.44Z" fill="#FC4D04"/>
<path d="M705.007 366.339C707.184 366.593 707.184 366.593 709.405 366.852C712.465 367.211 715.523 367.575 718.582 367.942C723.197 368.492 727.814 369.018 732.432 369.544C764.561 373.304 782.692 377.956 803.566 403.103C807.29 407.547 811.117 411.899 814.932 416.265C821.091 423.342 827.08 430.533 832.983 437.826C836.88 442.523 840.991 447.01 845.102 451.52C849.329 456.276 853.291 461.232 857.284 466.185C860.643 470.213 864.164 474.042 867.741 477.876C876.016 486.987 880.679 493.196 880.137 505.964C878.816 515.402 874.025 521.149 867.266 527.508C863.074 531.667 859.509 536.303 855.81 540.898C851.787 545.856 847.587 550.658 843.387 555.467C838.185 561.428 833.061 567.426 828.091 573.583C822.929 579.963 817.46 585.999 811.903 592.036C807.51 596.928 803.4 602.023 799.272 607.139C795.236 612.03 790.993 616.713 786.706 621.383C784.757 623.567 782.892 625.827 781.098 628.139C775.319 635.128 766.767 638.405 757.935 639.553C750.034 639.804 742.974 639.052 735.252 637.448C733.591 637.117 733.591 637.117 731.896 636.78C728.297 636.061 724.701 635.329 721.105 634.596C716.071 633.585 711.036 632.581 706.001 631.579C704.106 631.2 704.106 631.2 702.172 630.814C693.964 629.185 685.745 627.652 677.502 626.206C676.463 626.023 675.424 625.84 674.354 625.651C670.412 624.958 666.47 624.268 662.524 623.603C659.854 623.153 657.188 622.688 654.521 622.222C653.031 621.969 651.54 621.717 650.004 621.456C645.418 620.311 641.704 618.675 637.617 616.31C635.468 612.011 635.778 608.752 636.25 604.004C638.441 600.941 640.338 598.705 643.001 596.143C644.402 594.709 645.799 593.273 647.193 591.833C647.892 591.121 648.59 590.409 649.309 589.676C652.143 586.702 654.705 583.54 657.272 580.334C662.234 574.169 667.363 568.178 672.568 562.218C679.352 554.426 686.037 546.594 692.307 538.377C693.116 537.321 693.925 536.265 694.759 535.178C703.932 522.683 711.654 508.334 715.55 493.258C715.8 492.306 716.051 491.354 716.309 490.374C717.226 484.418 717.225 478.51 717.259 472.493C717.287 471.269 717.316 470.045 717.345 468.784C717.419 455.852 713.911 445.017 707.689 433.783C707.266 432.981 706.843 432.179 706.407 431.353C701.574 422.436 695.538 414.338 689.617 406.124C686.876 402.312 684.164 398.48 681.455 394.646C680.52 393.364 679.585 392.083 678.621 390.763C673.253 383.093 670.344 378.269 671.798 368.839C677.821 360.46 695.996 365.27 705.007 366.339Z" fill="#53504A"/>
<path d="M451.672 367.472C459.302 371.847 461.227 378.374 464.127 386.223C464.634 387.543 465.141 388.864 465.664 390.224C467.286 394.454 468.88 398.693 470.471 402.935C472.563 408.448 474.666 413.957 476.774 419.464C477.552 421.503 477.552 421.503 478.347 423.583C481.979 433.034 485.783 442.399 489.757 451.712C490.254 452.883 490.751 454.053 491.263 455.26C501.692 479.404 518.692 498.618 543.104 509.432C570.587 520.314 599.372 521.142 628.553 521.334C630.07 521.354 630.07 521.354 631.619 521.375C634.392 521.412 637.165 521.429 639.938 521.444C644.685 521.997 646.639 522.658 649.922 526.072C650.728 529.858 650.728 529.858 649.922 534.275C647.541 537.639 645.274 540.438 642.487 543.419C640.96 545.123 639.435 546.828 637.91 548.535C636.779 549.785 636.779 549.785 635.624 551.06C632.826 554.187 630.172 557.418 627.533 560.68C621.303 568.351 615.019 575.977 608.729 583.599C607.946 584.549 607.164 585.498 606.357 586.476C605.227 587.834 605.227 587.834 604.073 589.22C602.443 591.236 600.926 593.342 599.446 595.47C593.018 602.392 583.657 604.904 574.692 606.99C573.176 607.36 573.176 607.36 571.63 607.738C569.491 608.259 567.351 608.775 565.209 609.285C559.637 610.612 554.075 611.983 548.511 613.346C547.434 613.608 546.356 613.871 545.246 614.141C537.889 615.938 530.565 617.823 523.281 619.899C522.393 620.151 521.506 620.404 520.591 620.665C518.743 621.191 516.894 621.717 515.046 622.244C507.98 624.226 500.888 626.113 493.8 628.017C492.276 628.427 490.752 628.837 489.183 629.26C482.626 631.023 476.068 632.779 469.499 634.495C468.048 634.876 468.048 634.876 466.568 635.264C464.094 635.911 461.619 636.552 459.144 637.192C455.878 637.863 455.878 637.863 454.406 639.553C447.312 640.29 441.239 640.454 434.752 637.331C426.714 630.058 423.06 623.806 419.809 613.618C418.987 611.161 418.163 608.704 417.337 606.248C416.915 604.977 416.493 603.706 416.058 602.397C413.926 596.075 411.643 589.808 409.362 583.539C408.425 580.951 407.487 578.362 406.55 575.774C405.583 573.107 404.615 570.44 403.647 567.773C402.12 563.559 400.594 559.345 399.067 555.131C398.043 552.304 397.019 549.477 395.994 546.651C392.686 537.521 389.388 528.388 386.098 519.252C385.681 518.096 385.265 516.94 384.836 515.75C381.646 506.896 381.646 506.896 380.111 502.625C379.056 499.693 378 496.761 376.944 493.83C376.354 492.191 375.764 490.552 375.157 488.864C373.864 485.183 373.864 485.183 372.372 482.32C370.901 464.329 373.527 453.558 385.104 439.337C386.172 438.081 387.24 436.824 388.341 435.529C391.364 431.911 394.15 428.214 396.897 424.383C401.236 418.337 405.698 412.406 410.259 406.525C414.117 401.545 417.928 396.533 421.715 391.5C422.695 390.202 423.675 388.903 424.685 387.566C426.646 384.966 428.603 382.362 430.554 379.754C431.458 378.558 432.363 377.362 433.294 376.129C434.102 375.054 434.91 373.978 435.743 372.87C440.582 367.157 444.468 366.727 451.672 367.472Z" fill="#101314"/>
<path d="M555.325 188.021C556.941 188.014 558.557 188.007 560.222 188C565.422 188.383 569.718 189.657 574.722 191.098C578.204 191.844 581.677 192.554 585.174 193.218C586.156 193.408 587.139 193.598 588.151 193.794C591.336 194.409 594.523 195.018 597.709 195.627C599.938 196.056 602.167 196.486 604.397 196.916C610.911 198.172 617.427 199.421 623.943 200.668C627.178 201.288 630.413 201.907 633.647 202.527C635.812 202.941 635.812 202.941 638.02 203.364C643.65 204.444 649.279 205.534 654.907 206.623C659.121 207.433 663.337 208.23 667.554 209.025C671.28 209.73 675.004 210.448 678.727 211.168C681.367 211.675 684.011 212.167 686.654 212.659C700.368 215.332 711.366 217.835 720.374 229.1C723.671 234.044 725.583 239.139 727.426 244.762C727.857 246.007 728.289 247.253 728.733 248.536C730.294 253.079 731.808 257.636 733.322 262.194C733.995 264.198 734.668 266.201 735.343 268.203C739.295 279.945 743.223 291.695 747.099 303.462C748.773 308.544 750.484 313.61 752.229 318.668C754.123 324.64 754.568 328.444 753.831 334.658C750.962 338.523 749.301 339.949 744.533 340.853C722.58 340.658 700.699 337.201 679.032 333.881C669.505 332.437 660.243 331.432 650.604 331.496C649.38 331.503 648.155 331.51 646.893 331.517C618.747 332.009 594.576 343.315 574.06 362.441C564.377 372.755 555.982 384.486 550.085 397.364C548.814 400.135 547.395 402.708 545.839 405.327C542.503 411.221 540.011 417.292 537.545 423.582C536.955 425.059 536.364 426.536 535.756 428.058C535.206 429.462 534.656 430.867 534.09 432.314C532.338 435.834 532.338 435.834 528.236 438.568C523.504 438.59 523.504 438.59 518.666 437.201C515.878 433.505 515.878 433.505 513.709 428.656C512.625 426.319 512.625 426.319 511.52 423.935C508.888 417.719 506.518 411.402 504.113 405.096C500.976 396.957 497.687 388.881 494.397 380.802C493.722 379.133 493.047 377.464 492.351 375.745C491.708 374.164 491.065 372.583 490.402 370.954C489.823 369.528 489.243 368.101 488.646 366.632C487.509 363.494 487.509 363.494 485.852 362.003C484.495 348.025 486.708 336.425 491.399 323.269C493.891 316.209 496.243 309.102 498.615 302.001C499.222 300.185 499.83 298.371 500.439 296.556C504.24 285.244 507.828 273.924 510.884 262.387C513.03 254.348 515.639 246.507 518.346 238.641C521.219 230.194 523.61 221.653 525.742 212.99C528.492 202.401 533.601 195.485 542.907 189.602C547.142 187.911 550.776 188.002 555.325 188.021Z" fill="#FC4D04"/>
<path d="M241.92 898H218.496V721.588H241.92L302.676 869.94L363.432 721.588H387.344V898H363.92V828.216C363.92 795.276 364.164 783.32 365.384 770.876L313.9 898H291.452L240.212 771.364C241.432 779.904 241.92 797.96 241.92 822.604V898Z" fill="black"/>
<path d="M506.99 778.684H529.682V898H509.186L506.746 879.944C499.914 892.388 484.054 900.928 466.486 900.928C438.67 900.928 423.054 882.14 423.054 852.86V778.684H445.99V845.296C445.99 870.916 456.97 880.676 474.538 880.676C495.522 880.676 506.99 867.256 506.99 841.636V778.684Z" fill="black"/>
<path d="M596.387 898L548.319 778.684H572.719L598.827 845.296C602.975 856.52 606.391 866.524 608.343 873.844C610.295 866.036 614.199 855.788 618.347 845.296L644.943 778.684H668.855L619.079 898H596.387Z" fill="black"/>
<path d="M698.328 750.38C690.032 750.38 683.2 743.548 683.2 735.252C683.2 726.712 690.032 720.124 698.328 720.124C706.624 720.124 713.456 726.712 713.456 735.252C713.456 743.548 706.624 750.38 698.328 750.38ZM687.104 898V778.684H710.04V898H687.104Z" fill="black"/>
<path d="M805.558 898H747.242V721.588H804.582C857.286 721.588 892.91 757.212 892.91 809.916C892.91 862.376 857.774 898 805.558 898ZM802.874 743.548H771.154V875.796H803.85C843.134 875.796 868.022 850.42 868.022 809.916C868.022 768.924 843.134 743.548 802.874 743.548Z" fill="black"/>
<path d="M923.332 898V721.588H990.676C1025.08 721.588 1046.06 739.156 1046.06 768.192C1046.06 788.444 1037.28 802.108 1019.71 809.428C1039.23 815.772 1049.24 829.924 1049.24 850.908C1049.24 880.188 1028.01 898 993.116 898H923.332ZM989.212 742.816H947.244V799.424H990.676C1010.44 799.424 1021.66 788.688 1021.66 770.388C1021.66 752.82 1009.95 742.816 989.212 742.816ZM992.628 820.164H947.244V876.772H992.628C1013.12 876.772 1024.59 866.28 1024.59 847.98C1024.59 830.412 1012.88 820.164 992.628 820.164Z" fill="black"/>
</svg>
