<svg width="1254" height="1254" viewBox="0 0 1254 1254" fill="none" xmlns="http://www.w3.org/2000/svg">
<path d="M209.199 993H188.031V958.296H209.199V962.616H192.735V973.464H207.567V977.64H192.735V988.632H209.199V993Z" fill="white"/>
<path d="M237.184 993L223.984 958.296H229.024L237.472 980.472C238.24 982.44 238.912 984.408 239.632 987C240.448 984.264 241.264 981.96 241.84 980.424L250.24 958.296H255.136L242.08 993H237.184Z" fill="white"/>
<path d="M292.333 993H271.165V958.296H292.333V962.616H275.869V973.464H290.701V977.64H275.869V988.632H292.333V993Z" fill="white"/>
<path d="M315.373 993H310.669V958.296H323.773C331.213 958.296 335.629 962.232 335.629 968.712C335.629 973.512 333.229 976.968 328.909 978.36L335.965 993H330.733L324.253 979.272H315.373V993ZM315.373 962.52V975.096H323.821C328.189 975.096 330.685 972.744 330.685 968.76C330.685 964.728 328.093 962.52 323.773 962.52H315.373Z" fill="white"/>
<path d="M361.147 978.888L349.387 958.296H354.667L362.395 972.168C362.875 972.984 363.163 973.656 363.547 974.472C363.979 973.608 364.075 973.32 364.699 972.168L372.379 958.296H377.515L365.851 978.888V993H361.147V978.888Z" fill="white"/>
<path d="M436.55 978.264H422.918V993H418.214V958.296H439.142V962.616H422.918V973.992H436.55V978.264Z" fill="white"/>
<path d="M461.063 958.296V993H456.359V958.296H461.063Z" fill="white"/>
<path d="M485.38 958.296V988.632H500.644V993H480.676V958.296H485.38Z" fill="white"/>
<path d="M521.882 993H517.274V958.296H521.882L533.834 987.48L545.786 958.296H550.49V993H545.882V979.272C545.882 972.792 545.93 970.44 546.17 967.992L536.042 993H531.626L521.546 968.088C521.786 969.768 521.882 973.32 521.882 978.168V993Z" fill="white"/>
<path d="M572.683 993.576C570.811 993.576 569.227 992.04 569.227 990.216C569.227 988.344 570.811 986.808 572.683 986.808C574.507 986.808 576.091 988.344 576.091 990.216C576.091 992.04 574.507 993.576 572.683 993.576Z" fill="white"/>
<path d="M640.689 993H619.521V958.296H640.689V962.616H624.225V973.464H639.057V977.64H624.225V988.632H640.689V993Z" fill="white"/>
<path d="M668.674 993L655.474 958.296H660.514L668.962 980.472C669.73 982.44 670.402 984.408 671.122 987C671.938 984.264 672.754 981.96 673.33 980.424L681.73 958.296H686.626L673.57 993H668.674Z" fill="white"/>
<path d="M723.823 993H702.655V958.296H723.823V962.616H707.359V973.464H722.191V977.64H707.359V988.632H723.823V993Z" fill="white"/>
<path d="M746.863 993H742.159V958.296H755.263C762.703 958.296 767.119 962.232 767.119 968.712C767.119 973.512 764.719 976.968 760.399 978.36L767.455 993H762.223L755.743 979.272H746.863V993ZM746.863 962.52V975.096H755.311C759.679 975.096 762.175 972.744 762.175 968.76C762.175 964.728 759.583 962.52 755.263 962.52H746.863Z" fill="white"/>
<path d="M792.637 978.888L780.877 958.296H786.157L793.885 972.168C794.365 972.984 794.653 973.656 795.037 974.472C795.469 973.608 795.565 973.32 796.189 972.168L803.869 958.296H809.005L797.341 978.888V993H792.637V978.888Z" fill="white"/>
<path d="M864.104 993.528C854.216 993.528 847.64 986.424 847.64 975.672C847.64 964.968 854.408 957.72 864.344 957.72C872.168 957.72 878.168 962.376 879.464 969.48H874.424C873.128 964.968 869.24 962.232 864.2 962.232C857.192 962.232 852.584 967.512 852.584 975.624C852.584 983.736 857.192 989.016 864.2 989.016C869.288 989.016 873.32 986.28 874.616 982.008H879.608C878.12 988.92 871.928 993.528 864.104 993.528Z" fill="white"/>
<path d="M901.6 993H896.896V958.296H910C917.44 958.296 921.856 962.232 921.856 968.712C921.856 973.512 919.456 976.968 915.136 978.36L922.192 993H916.96L910.48 979.272H901.6V993ZM901.6 962.52V975.096H910.048C914.416 975.096 916.912 972.744 916.912 968.76C916.912 964.728 914.32 962.52 910 962.52H901.6Z" fill="white"/>
<path d="M960.99 993H939.822V958.296H960.99V962.616H944.526V973.464H959.358V977.64H944.526V988.632H960.99V993Z" fill="white"/>
<path d="M990.798 993H979.326V958.296H990.606C1000.97 958.296 1007.98 965.304 1007.98 975.672C1007.98 985.992 1001.07 993 990.798 993ZM990.27 962.616H984.03V988.632H990.462C998.19 988.632 1003.09 983.64 1003.09 975.672C1003.09 967.608 998.19 962.616 990.27 962.616Z" fill="white"/>
<path d="M1030.19 958.296V993H1025.49V958.296H1030.19Z" fill="white"/>
<path d="M1046.44 962.616V958.296H1072.03V962.616H1061.61V993H1056.91V962.616H1046.44Z" fill="white"/>
<path d="M707.007 356.339C709.184 356.593 709.184 356.593 711.405 356.852C714.465 357.211 717.523 357.575 720.582 357.942C725.197 358.492 729.814 359.018 734.432 359.544C766.561 363.304 784.692 367.956 805.566 393.103C809.29 397.547 813.117 401.899 816.932 406.265C823.091 413.342 829.08 420.533 834.983 427.826C838.88 432.523 842.991 437.01 847.102 441.52C851.329 446.276 855.291 451.232 859.284 456.185C862.643 460.213 866.164 464.042 869.741 467.876C878.016 476.987 882.679 483.196 882.137 495.964C880.816 505.402 876.025 511.149 869.266 517.508C865.074 521.667 861.509 526.303 857.81 530.898C853.787 535.856 849.587 540.658 845.387 545.467C840.185 551.428 835.061 557.426 830.091 563.583C824.929 569.963 819.46 575.999 813.903 582.036C809.51 586.928 805.4 592.023 801.272 597.139C797.236 602.03 792.993 606.713 788.706 611.383C786.757 613.567 784.892 615.827 783.098 618.139C777.319 625.128 768.767 628.405 759.935 629.553C752.034 629.804 744.974 629.052 737.252 627.448C735.591 627.117 735.591 627.117 733.896 626.78C730.297 626.061 726.701 625.329 723.105 624.596C718.071 623.585 713.036 622.581 708.001 621.579C706.106 621.2 706.106 621.2 704.172 620.814C695.964 619.185 687.745 617.652 679.502 616.206C678.463 616.023 677.424 615.84 676.354 615.651C672.412 614.958 668.47 614.268 664.524 613.603C661.854 613.153 659.188 612.688 656.521 612.222C655.031 611.969 653.54 611.717 652.004 611.456C647.418 610.311 643.704 608.675 639.617 606.31C637.468 602.011 637.778 598.752 638.25 594.004C640.441 590.941 642.338 588.705 645.001 586.143C646.402 584.709 647.799 583.273 649.193 581.833C649.892 581.121 650.59 580.409 651.309 579.676C654.143 576.702 656.705 573.54 659.272 570.334C664.234 564.169 669.363 558.178 674.568 552.218C681.352 544.426 688.037 536.594 694.307 528.377C695.116 527.321 695.925 526.265 696.759 525.178C705.932 512.683 713.654 498.334 717.55 483.258C717.8 482.306 718.051 481.354 718.309 480.374C719.226 474.418 719.225 468.51 719.259 462.493C719.287 461.269 719.316 460.045 719.345 458.784C719.419 445.852 715.911 435.017 709.689 423.783C709.266 422.981 708.843 422.179 708.407 421.353C703.574 412.436 697.538 404.338 691.617 396.124C688.876 392.312 686.164 388.48 683.455 384.646C682.52 383.364 681.585 382.083 680.621 380.763C675.253 373.093 672.344 368.269 673.798 358.839C679.821 350.46 697.996 355.27 707.007 356.339Z" fill="white"/>
<path d="M453.672 357.472C461.302 361.847 463.227 368.374 466.127 376.223C466.634 377.543 467.141 378.864 467.664 380.224C469.286 384.454 470.88 388.693 472.471 392.935C474.563 398.448 476.666 403.957 478.774 409.464C479.552 411.503 479.552 411.503 480.347 413.583C483.979 423.034 487.783 432.399 491.757 441.712C492.254 442.883 492.751 444.053 493.263 445.26C503.692 469.404 520.692 488.618 545.104 499.432C572.587 510.314 601.372 511.142 630.553 511.334C632.07 511.354 632.07 511.354 633.619 511.375C636.392 511.412 639.165 511.429 641.938 511.444C646.685 511.997 648.639 512.658 651.922 516.072C652.728 519.858 652.728 519.858 651.922 524.275C649.541 527.639 647.274 530.438 644.487 533.419C642.96 535.123 641.435 536.828 639.91 538.535C638.779 539.785 638.779 539.785 637.624 541.06C634.826 544.187 632.172 547.418 629.533 550.68C623.303 558.351 617.019 565.977 610.729 573.599C609.946 574.549 609.164 575.498 608.357 576.476C607.227 577.834 607.227 577.834 606.073 579.22C604.443 581.236 602.926 583.342 601.446 585.47C595.018 592.392 585.657 594.904 576.692 596.99C575.176 597.36 575.176 597.36 573.63 597.738C571.491 598.259 569.351 598.775 567.209 599.285C561.637 600.612 556.075 601.983 550.511 603.346C549.434 603.608 548.356 603.871 547.246 604.141C539.889 605.938 532.565 607.823 525.281 609.899C524.393 610.151 523.506 610.404 522.591 610.665C520.743 611.191 518.894 611.717 517.046 612.244C509.98 614.226 502.888 616.113 495.8 618.017C494.276 618.427 492.752 618.837 491.183 619.26C484.626 621.023 478.068 622.779 471.499 624.495C470.048 624.876 470.048 624.876 468.568 625.264C466.094 625.911 463.619 626.552 461.144 627.192C457.878 627.863 457.878 627.863 456.406 629.553C449.312 630.29 443.239 630.454 436.752 627.331C428.714 620.058 425.06 613.806 421.809 603.618C420.987 601.161 420.163 598.704 419.337 596.248C418.915 594.977 418.493 593.706 418.058 592.397C415.926 586.075 413.643 579.808 411.362 573.539C410.425 570.951 409.487 568.362 408.55 565.774C407.583 563.107 406.615 560.44 405.647 557.773C404.12 553.559 402.594 549.345 401.067 545.131C400.043 542.304 399.019 539.477 397.994 536.651C394.686 527.521 391.388 518.388 388.098 509.252C387.681 508.096 387.265 506.94 386.836 505.75C383.646 496.896 383.646 496.896 382.111 492.625C381.056 489.693 380 486.761 378.944 483.83C378.354 482.191 377.764 480.552 377.157 478.864C375.864 475.183 375.864 475.183 374.372 472.32C372.901 454.329 375.527 443.558 387.104 429.337C388.172 428.081 389.24 426.824 390.341 425.529C393.364 421.911 396.15 418.214 398.897 414.383C403.236 408.337 407.698 402.406 412.259 396.525C416.117 391.545 419.928 386.533 423.715 381.5C424.695 380.202 425.675 378.903 426.685 377.566C428.646 374.966 430.603 372.362 432.554 369.754C433.458 368.558 434.363 367.362 435.294 366.129C436.102 365.054 436.91 363.978 437.743 362.87C442.582 357.157 446.468 356.727 453.672 357.472Z" fill="white"/>
<path d="M557.325 178.021C558.941 178.014 560.557 178.007 562.222 178C567.422 178.383 571.718 179.657 576.722 181.098C580.204 181.844 583.677 182.554 587.174 183.218C588.156 183.408 589.139 183.598 590.151 183.794C593.336 184.409 596.523 185.018 599.709 185.627C601.938 186.056 604.167 186.486 606.397 186.916C612.911 188.172 619.427 189.421 625.943 190.668C629.178 191.288 632.413 191.907 635.647 192.527C637.812 192.941 637.812 192.941 640.02 193.364C645.65 194.444 651.279 195.534 656.907 196.623C661.121 197.433 665.337 198.23 669.554 199.025C673.28 199.73 677.004 200.448 680.727 201.168C683.367 201.675 686.011 202.167 688.654 202.659C702.368 205.332 713.366 207.835 722.374 219.1C725.671 224.044 727.583 229.139 729.426 234.762C729.857 236.007 730.289 237.253 730.733 238.536C732.294 243.079 733.808 247.636 735.322 252.194C735.995 254.198 736.668 256.201 737.343 258.203C741.295 269.945 745.223 281.695 749.099 293.462C750.773 298.544 752.484 303.61 754.229 308.668C756.123 314.64 756.568 318.444 755.831 324.658C752.962 328.523 751.301 329.949 746.533 330.853C724.58 330.658 702.699 327.201 681.032 323.881C671.505 322.437 662.243 321.432 652.604 321.496C651.38 321.503 650.155 321.51 648.893 321.517C620.747 322.009 596.576 333.315 576.06 352.441C566.377 362.755 557.982 374.486 552.085 387.364C550.814 390.135 549.395 392.708 547.839 395.327C544.503 401.221 542.011 407.292 539.545 413.582C538.955 415.059 538.364 416.536 537.756 418.058C537.206 419.462 536.656 420.867 536.09 422.314C534.338 425.834 534.338 425.834 530.236 428.568C525.504 428.59 525.504 428.59 520.666 427.201C517.878 423.505 517.878 423.505 515.709 418.656C514.625 416.319 514.625 416.319 513.52 413.935C510.888 407.719 508.518 401.402 506.113 395.096C502.976 386.957 499.687 378.881 496.397 370.802C495.722 369.133 495.047 367.464 494.351 365.745C493.708 364.164 493.065 362.583 492.402 360.954C491.823 359.528 491.243 358.101 490.646 356.632C489.509 353.494 489.509 353.494 487.852 352.003C486.495 338.025 488.708 326.425 493.399 313.269C495.891 306.209 498.243 299.102 500.615 292.001C501.222 290.185 501.83 288.371 502.439 286.556C506.24 275.244 509.828 263.924 512.884 252.387C515.03 244.348 517.639 236.507 520.346 228.641C523.219 220.194 525.61 211.653 527.742 202.99C530.492 192.401 535.601 185.485 544.907 179.602C549.142 177.911 552.776 178.002 557.325 178.021Z" fill="white"/>
<path d="M223.92 888H200.496V711.588H223.92L284.676 859.94L345.432 711.588H369.344V888H345.92V818.216C345.92 785.276 346.164 773.32 347.384 760.876L295.9 888H273.452L222.212 761.364C223.432 769.904 223.92 787.96 223.92 812.604V888Z" fill="white"/>
<path d="M488.99 768.684H511.682V888H491.186L488.746 869.944C481.914 882.388 466.054 890.928 448.486 890.928C420.67 890.928 405.054 872.14 405.054 842.86V768.684H427.99V835.296C427.99 860.916 438.97 870.676 456.538 870.676C477.522 870.676 488.99 857.256 488.99 831.636V768.684Z" fill="white"/>
<path d="M578.387 888L530.319 768.684H554.719L580.827 835.296C584.975 846.52 588.391 856.524 590.343 863.844C592.295 856.036 596.199 845.788 600.347 835.296L626.943 768.684H650.855L601.079 888H578.387Z" fill="white"/>
<path d="M680.328 740.38C672.032 740.38 665.2 733.548 665.2 725.252C665.2 716.712 672.032 710.124 680.328 710.124C688.624 710.124 695.456 716.712 695.456 725.252C695.456 733.548 688.624 740.38 680.328 740.38ZM669.104 888V768.684H692.04V888H669.104Z" fill="white"/>
<path d="M787.558 888H729.242V711.588H786.582C839.286 711.588 874.91 747.212 874.91 799.916C874.91 852.376 839.774 888 787.558 888ZM784.874 733.548H753.154V865.796H785.85C825.134 865.796 850.022 840.42 850.022 799.916C850.022 758.924 825.134 733.548 784.874 733.548Z" fill="white"/>
<path d="M905.332 888V711.588H972.676C1007.08 711.588 1028.06 729.156 1028.06 758.192C1028.06 778.444 1019.28 792.108 1001.71 799.428C1021.23 805.772 1031.24 819.924 1031.24 840.908C1031.24 870.188 1010.01 888 975.116 888H905.332ZM971.212 732.816H929.244V789.424H972.676C992.44 789.424 1003.66 778.688 1003.66 760.388C1003.66 742.82 991.952 732.816 971.212 732.816ZM974.628 810.164H929.244V866.772H974.628C995.124 866.772 1006.59 856.28 1006.59 837.98C1006.59 820.412 994.88 810.164 974.628 810.164Z" fill="white"/>
</svg>
