<svg width="1405" height="432" viewBox="0 0 1405 432" fill="none" xmlns="http://www.w3.org/2000/svg">
<path d="M289.518 182.916C291.019 183.091 291.019 183.091 292.549 183.27C294.658 183.517 296.766 183.768 298.874 184.021C302.055 184.4 305.237 184.763 308.42 185.125C330.564 187.717 343.06 190.923 357.448 208.255C360.014 211.318 362.652 214.318 365.281 217.327C369.526 222.204 373.654 227.16 377.723 232.187C380.408 235.425 383.242 238.517 386.075 241.625C388.988 244.903 391.719 248.319 394.471 251.733C396.787 254.509 399.213 257.148 401.679 259.791C407.382 266.071 410.596 270.349 410.222 279.149C409.312 285.655 406.01 289.616 401.351 293.999C398.462 296.865 396.005 300.06 393.455 303.227C390.682 306.645 387.788 309.954 384.893 313.269C381.308 317.377 377.776 321.511 374.351 325.755C370.793 330.152 367.023 334.312 363.194 338.473C360.166 341.845 357.333 345.356 354.488 348.883C351.706 352.253 348.782 355.481 345.827 358.7C344.483 360.205 343.198 361.763 341.962 363.356C337.978 368.173 332.085 370.432 325.997 371.223C320.552 371.396 315.686 370.878 310.364 369.772C309.219 369.544 309.219 369.544 308.05 369.312C305.57 368.816 303.091 368.312 300.613 367.807C297.143 367.11 293.673 366.418 290.203 365.727C288.897 365.466 288.897 365.466 287.564 365.2C281.907 364.077 276.242 363.02 270.561 362.024C269.845 361.898 269.129 361.771 268.391 361.641C265.674 361.164 262.957 360.688 260.237 360.23C258.397 359.92 256.559 359.599 254.721 359.278C253.694 359.104 252.667 358.93 251.608 358.75C248.448 357.961 245.888 356.833 243.071 355.203C241.59 352.24 241.803 349.994 242.129 346.722C243.639 344.611 244.946 343.069 246.781 341.303C247.747 340.315 248.71 339.325 249.671 338.333C250.152 337.842 250.633 337.352 251.129 336.846C253.083 334.796 254.849 332.618 256.617 330.408C260.037 326.158 263.572 322.029 267.16 317.922C271.836 312.551 276.443 307.153 280.765 301.489C281.322 300.762 281.88 300.034 282.454 299.285C288.777 290.673 294.099 280.783 296.784 270.392C296.957 269.736 297.129 269.08 297.307 268.404C297.939 264.3 297.939 260.228 297.962 256.08C297.982 255.237 298.001 254.393 298.021 253.524C298.073 244.611 295.654 237.143 291.366 229.4C291.074 228.848 290.783 228.295 290.482 227.726C287.152 221.58 282.991 215.999 278.911 210.337C277.022 207.71 275.152 205.069 273.285 202.426C272.64 201.543 271.996 200.66 271.332 199.75C267.632 194.464 265.627 191.139 266.629 184.639C270.78 178.864 283.307 182.179 289.518 182.916Z" fill="#53504A"/>
<path d="M114.912 183.697C120.171 186.713 121.498 191.211 123.496 196.621C123.846 197.531 124.196 198.441 124.556 199.378C125.674 202.294 126.772 205.216 127.869 208.139C129.311 211.939 130.761 215.736 132.213 219.532C132.75 220.937 132.75 220.937 133.297 222.371C135.801 228.885 138.423 235.339 141.161 241.758C141.504 242.565 141.847 243.371 142.2 244.203C149.387 260.844 161.104 274.087 177.929 281.54C196.872 289.04 216.711 289.611 236.824 289.743C237.869 289.757 237.869 289.757 238.936 289.772C240.848 289.797 242.759 289.809 244.671 289.819C247.942 290.2 249.289 290.656 251.552 293.009C252.107 295.618 252.107 295.618 251.552 298.663C249.911 300.981 248.348 302.91 246.428 304.965C245.375 306.139 244.324 307.315 243.273 308.491C242.493 309.352 242.493 309.352 241.697 310.231C239.768 312.386 237.939 314.613 236.121 316.862C231.826 322.149 227.496 327.405 223.16 332.658C222.621 333.312 222.081 333.967 221.525 334.641C220.746 335.577 220.746 335.577 219.951 336.532C218.828 337.921 217.782 339.373 216.762 340.84C212.332 345.611 205.88 347.342 199.701 348.78C198.656 349.035 198.656 349.035 197.59 349.295C196.116 349.654 194.641 350.01 193.165 350.361C189.325 351.276 185.491 352.221 181.656 353.16C180.914 353.341 180.171 353.522 179.406 353.709C174.335 354.947 169.288 356.246 164.267 357.677C163.655 357.851 163.043 358.025 162.413 358.204C161.139 358.567 159.865 358.93 158.591 359.293C153.721 360.659 148.833 361.96 143.948 363.272C142.898 363.555 141.847 363.837 140.765 364.129C136.247 365.344 131.727 366.554 127.199 367.737C126.199 367.999 126.199 367.999 125.179 368.267C123.474 368.713 121.768 369.154 120.062 369.596C117.811 370.058 117.811 370.058 116.797 371.223C111.907 371.731 107.721 371.844 103.251 369.692C97.7101 364.679 95.1919 360.37 92.9511 353.348C92.3845 351.654 91.8167 349.961 91.2477 348.268C90.9568 347.392 90.6659 346.516 90.3662 345.614C88.8969 341.256 87.3233 336.938 85.751 332.616C85.1049 330.833 84.4589 329.049 83.8129 327.265C83.1461 325.427 82.4792 323.588 81.8123 321.75C80.7598 318.846 79.7075 315.941 78.6553 313.037C77.9495 311.089 77.2435 309.14 76.5375 307.192C74.2574 300.9 71.9842 294.605 69.7165 288.308C69.4295 287.511 69.1425 286.715 68.8468 285.894C66.6482 279.792 66.6482 279.792 65.59 276.848C64.8634 274.827 64.1354 272.807 63.4072 270.786C63.0009 269.657 62.5945 268.527 62.1759 267.364C61.2849 264.827 61.2849 264.827 60.2562 262.854C59.2422 250.454 61.0526 243.03 69.0318 233.229C69.7679 232.363 70.5041 231.497 71.2625 230.604C73.3461 228.11 75.2664 225.562 77.1595 222.922C80.1504 218.755 83.2257 214.667 86.3694 210.614C89.0281 207.182 91.6546 203.727 94.2652 200.258C94.9406 199.363 95.616 198.468 96.3118 197.546C97.6638 195.754 99.0124 193.959 100.357 192.162C100.98 191.338 101.604 190.513 102.246 189.664C102.803 188.923 103.359 188.181 103.933 187.418C107.269 183.48 109.947 183.183 114.912 183.697Z" fill="#101314"/>
<path d="M186.353 60.0147C187.467 60.0099 188.581 60.005 189.728 60C193.312 60.264 196.273 61.1419 199.722 62.135C202.122 62.6494 204.516 63.1389 206.926 63.5964C207.603 63.7273 208.28 63.8582 208.977 63.993C211.173 64.4169 213.369 64.8367 215.565 65.2565C217.102 65.5525 218.638 65.8487 220.175 66.1452C224.665 67.011 229.155 67.8718 233.647 68.7314C235.876 69.1584 238.106 69.5854 240.335 70.0124C241.827 70.298 241.827 70.298 243.349 70.5894C247.229 71.334 251.109 72.0847 254.988 72.8357C257.892 73.394 260.798 73.9434 263.705 74.4907C266.273 74.9767 268.839 75.4716 271.405 75.9682C273.225 76.3177 275.047 76.6568 276.869 76.9955C286.321 78.838 293.901 80.5628 300.11 88.3273C302.382 91.7347 303.699 95.2467 304.97 99.1219C305.267 99.9803 305.564 100.839 305.871 101.723C306.946 104.854 307.99 107.995 309.034 111.137C309.497 112.517 309.962 113.898 310.426 115.278C313.15 123.371 315.858 131.469 318.529 139.58C319.683 143.082 320.862 146.574 322.065 150.06C323.37 154.176 323.677 156.798 323.169 161.081C321.191 163.745 320.046 164.727 316.76 165.351C301.63 165.216 286.549 162.833 271.615 160.545C265.049 159.55 258.666 158.857 252.022 158.902C251.178 158.906 250.334 158.911 249.464 158.916C230.065 159.255 213.406 167.047 199.266 180.229C192.592 187.339 186.806 195.424 182.742 204.3C181.866 206.209 180.887 207.983 179.815 209.788C177.516 213.85 175.798 218.034 174.099 222.37C173.692 223.388 173.285 224.406 172.866 225.454C172.487 226.423 172.108 227.391 171.717 228.388C170.51 230.814 170.51 230.814 167.683 232.699C164.421 232.713 164.421 232.713 161.086 231.756C159.165 229.209 159.165 229.209 157.67 225.867C156.923 224.256 156.923 224.256 156.161 222.613C154.347 218.329 152.714 213.975 151.056 209.629C148.894 204.019 146.627 198.453 144.36 192.885C143.895 191.734 143.429 190.584 142.95 189.399C142.507 188.309 142.063 187.22 141.606 186.097C141.207 185.114 140.808 184.131 140.396 183.118C139.613 180.956 139.613 180.956 138.47 179.928C137.535 170.293 139.06 162.298 142.294 153.231C144.011 148.366 145.632 143.467 147.267 138.572C147.685 137.321 148.104 136.071 148.524 134.82C151.144 127.023 153.617 119.221 155.723 111.27C157.202 105.729 159.001 100.325 160.866 94.9034C162.846 89.0815 164.494 83.1948 165.964 77.2235C167.859 69.9257 171.38 65.1586 177.794 61.1043C180.713 59.9389 183.218 60.0011 186.353 60.0147Z" fill="#FC4D04"/>
<path d="M483.676 264.312H460.252V87.8995H483.676L544.432 236.252L605.188 87.8995H629.1V264.312H605.676V194.528C605.676 161.588 605.92 149.632 607.14 137.188L555.656 264.312H533.208L481.968 137.676C483.188 146.216 483.676 164.272 483.676 188.916V264.312Z" fill="black"/>
<path d="M748.746 144.996H771.438V264.312H750.942L748.502 246.256C741.67 258.7 725.81 267.24 708.242 267.24C680.426 267.24 664.81 248.452 664.81 219.172V144.996H687.746V211.608C687.746 237.228 698.726 246.988 716.294 246.988C737.278 246.988 748.746 233.568 748.746 207.948V144.996Z" fill="black"/>
<path d="M838.143 264.312L790.075 144.996H814.475L840.583 211.608C844.731 222.832 848.147 232.836 850.099 240.156C852.051 232.348 855.955 222.1 860.103 211.608L886.699 144.996H910.611L860.835 264.312H838.143Z" fill="black"/>
<path d="M940.084 116.692C931.788 116.692 924.956 109.86 924.956 101.564C924.956 93.0236 931.788 86.4355 940.084 86.4355C948.38 86.4355 955.212 93.0236 955.212 101.564C955.212 109.86 948.38 116.692 940.084 116.692ZM928.86 264.312V144.996H951.796V264.312H928.86Z" fill="black"/>
<path d="M1047.31 264.312H988.998V87.8995H1046.34C1099.04 87.8995 1134.67 123.524 1134.67 176.228C1134.67 228.688 1099.53 264.312 1047.31 264.312ZM1044.63 109.86H1012.91V242.108H1045.61C1084.89 242.108 1109.78 216.732 1109.78 176.228C1109.78 135.236 1084.89 109.86 1044.63 109.86Z" fill="black"/>
<path d="M1165.09 264.312V87.8995H1232.43C1266.84 87.8995 1287.82 105.468 1287.82 134.504C1287.82 154.756 1279.04 168.42 1261.47 175.74C1280.99 182.084 1290.99 196.236 1290.99 217.22C1290.99 246.5 1269.76 264.312 1234.87 264.312H1165.09ZM1230.97 109.128H1189V165.736H1232.43C1252.2 165.736 1263.42 155 1263.42 136.7C1263.42 119.132 1251.71 109.128 1230.97 109.128ZM1234.38 186.476H1189V243.084H1234.38C1254.88 243.084 1266.35 232.592 1266.35 214.292C1266.35 196.724 1254.64 186.476 1234.38 186.476Z" fill="black"/>
<path d="M481.42 344.52H460.252V309.816H481.42V314.136H464.956V324.984H479.788V329.16H464.956V340.152H481.42V344.52Z" fill="#FC4D04"/>
<path d="M509.404 344.52L496.204 309.816H501.244L509.692 331.992C510.46 333.96 511.132 335.928 511.852 338.52C512.668 335.784 513.484 333.48 514.06 331.944L522.46 309.816H527.356L514.3 344.52H509.404Z" fill="#FC4D04"/>
<path d="M564.554 344.52H543.386V309.816H564.554V314.136H548.09V324.984H562.922V329.16H548.09V340.152H564.554V344.52Z" fill="#FC4D04"/>
<path d="M587.594 344.52H582.89V309.816H595.994C603.434 309.816 607.85 313.752 607.85 320.232C607.85 325.032 605.45 328.488 601.13 329.88L608.186 344.52H602.954L596.474 330.792H587.594V344.52ZM587.594 314.04V326.616H596.042C600.41 326.616 602.906 324.264 602.906 320.28C602.906 316.248 600.314 314.04 595.994 314.04H587.594Z" fill="#FC4D04"/>
<path d="M633.368 330.408L621.608 309.816H626.888L634.616 323.688C635.096 324.504 635.384 325.176 635.768 325.992C636.2 325.128 636.296 324.84 636.92 323.688L644.6 309.816H649.736L638.072 330.408V344.52H633.368V330.408Z" fill="#FC4D04"/>
<path d="M708.77 329.784H695.138V344.52H690.434V309.816H711.362V314.136H695.138V325.512H708.77V329.784Z" fill="#FC4D04"/>
<path d="M733.283 309.816V344.52H728.579V309.816H733.283Z" fill="#FC4D04"/>
<path d="M757.6 309.816V340.152H772.864V344.52H752.896V309.816H757.6Z" fill="#FC4D04"/>
<path d="M794.102 344.52H789.494V309.816H794.102L806.054 339L818.006 309.816H822.71V344.52H818.102V330.792C818.102 324.312 818.15 321.96 818.39 319.512L808.262 344.52H803.846L793.766 319.608C794.006 321.288 794.102 324.84 794.102 329.688V344.52Z" fill="#FC4D04"/>
<path d="M844.903 345.096C843.031 345.096 841.447 343.56 841.447 341.736C841.447 339.864 843.031 338.328 844.903 338.328C846.727 338.328 848.311 339.864 848.311 341.736C848.311 343.56 846.727 345.096 844.903 345.096Z" fill="#FC4D04"/>
<path d="M912.91 344.52H891.742V309.816H912.91V314.136H896.446V324.984H911.278V329.16H896.446V340.152H912.91V344.52Z" fill="#FC4D04"/>
<path d="M940.894 344.52L927.694 309.816H932.734L941.182 331.992C941.95 333.96 942.622 335.928 943.342 338.52C944.158 335.784 944.974 333.48 945.55 331.944L953.95 309.816H958.846L945.79 344.52H940.894Z" fill="#FC4D04"/>
<path d="M996.044 344.52H974.876V309.816H996.044V314.136H979.58V324.984H994.412V329.16H979.58V340.152H996.044V344.52Z" fill="#FC4D04"/>
<path d="M1019.08 344.52H1014.38V309.816H1027.48C1034.92 309.816 1039.34 313.752 1039.34 320.232C1039.34 325.032 1036.94 328.488 1032.62 329.88L1039.68 344.52H1034.44L1027.96 330.792H1019.08V344.52ZM1019.08 314.04V326.616H1027.53C1031.9 326.616 1034.4 324.264 1034.4 320.28C1034.4 316.248 1031.8 314.04 1027.48 314.04H1019.08Z" fill="#FC4D04"/>
<path d="M1064.86 330.408L1053.1 309.816H1058.38L1066.11 323.688C1066.59 324.504 1066.87 325.176 1067.26 325.992C1067.69 325.128 1067.79 324.84 1068.41 323.688L1076.09 309.816H1081.23L1069.56 330.408V344.52H1064.86V330.408Z" fill="#FC4D04"/>
<path d="M1136.32 345.048C1126.44 345.048 1119.86 337.944 1119.86 327.192C1119.86 316.488 1126.63 309.24 1136.56 309.24C1144.39 309.24 1150.39 313.896 1151.68 321H1146.64C1145.35 316.488 1141.46 313.752 1136.42 313.752C1129.41 313.752 1124.8 319.032 1124.8 327.144C1124.8 335.256 1129.41 340.536 1136.42 340.536C1141.51 340.536 1145.54 337.8 1146.84 333.528H1151.83C1150.34 340.44 1144.15 345.048 1136.32 345.048Z" fill="#FC4D04"/>
<path d="M1173.82 344.52H1169.12V309.816H1182.22C1189.66 309.816 1194.08 313.752 1194.08 320.232C1194.08 325.032 1191.68 328.488 1187.36 329.88L1194.41 344.52H1189.18L1182.7 330.792H1173.82V344.52ZM1173.82 314.04V326.616H1182.27C1186.64 326.616 1189.13 324.264 1189.13 320.28C1189.13 316.248 1186.54 314.04 1182.22 314.04H1173.82Z" fill="#FC4D04"/>
<path d="M1233.21 344.52H1212.04V309.816H1233.21V314.136H1216.75V324.984H1231.58V329.16H1216.75V340.152H1233.21V344.52Z" fill="#FC4D04"/>
<path d="M1263.02 344.52H1251.55V309.816H1262.83C1273.19 309.816 1280.2 316.824 1280.2 327.192C1280.2 337.512 1273.29 344.52 1263.02 344.52ZM1262.49 314.136H1256.25V340.152H1262.68C1270.41 340.152 1275.31 335.16 1275.31 327.192C1275.31 319.128 1270.41 314.136 1262.49 314.136Z" fill="#FC4D04"/>
<path d="M1302.41 309.816V344.52H1297.71V309.816H1302.41Z" fill="#FC4D04"/>
<path d="M1318.66 314.136V309.816H1344.25V314.136H1333.83V344.52H1329.13V314.136H1318.66Z" fill="#FC4D04"/>
</svg>
